<svg width="24" height="24" viewBox="0 0 24 24" fill="none" xmlns="http://www.w3.org/2000/svg">
<path d="M22 22.75H2C1.59 22.75 1.25 22.41 1.25 22C1.25 21.59 1.59 21.25 2 21.25H22C22.41 21.25 22.75 21.59 22.75 22C22.75 22.41 22.41 22.75 22 22.75Z" fill="#A7ACB2"/>
<path d="M21 22.75H3C2.59 22.75 2.25 22.41 2.25 22V15C2.25 9.62 6.62 5.25 12 5.25C17.38 5.25 21.75 9.62 21.75 15V22C21.75 22.41 21.41 22.75 21 22.75ZM3.75 21.25H20.25V15C20.25 10.45 16.55 6.75 12 6.75C7.45 6.75 3.75 10.45 3.75 15V21.25Z" fill="#A7ACB2"/>
<path d="M12 3.75C11.59 3.75 11.25 3.41 11.25 3V2C11.25 1.59 11.59 1.25 12 1.25C12.41 1.25 12.75 1.59 12.75 2V3C12.75 3.41 12.41 3.75 12 3.75Z" fill="#A7ACB2"/>
<path d="M4.9975 5.75043C4.8075 5.75043 4.6175 5.68043 4.4675 5.53043L3.4675 4.53043C3.1775 4.24043 3.1775 3.76043 3.4675 3.47043C3.7575 3.18043 4.2375 3.18043 4.5275 3.47043L5.5275 4.47043C5.8175 4.76043 5.8175 5.24043 5.5275 5.53043C5.3775 5.68043 5.1875 5.75043 4.9975 5.75043Z" fill="#A7ACB2"/>
<path d="M18.9975 5.75043C18.8075 5.75043 18.6175 5.68043 18.4675 5.53043C18.1775 5.24043 18.1775 4.76043 18.4675 4.47043L19.4675 3.47043C19.7575 3.18043 20.2375 3.18043 20.5275 3.47043C20.8175 3.76043 20.8175 4.24043 20.5275 4.53043L19.5275 5.53043C19.3775 5.68043 19.1875 5.75043 18.9975 5.75043Z" fill="#A7ACB2"/>
</svg>
