<svg width="116" height="115" viewBox="0 0 116 115" fill="none" xmlns="http://www.w3.org/2000/svg">
<path d="M95.9855 20.3842C105.368 29.9531 110.741 42.7474 111.005 56.1493L110.791 62.1817C109.577 75.3923 103.434 87.6608 93.5856 96.5437C83.7371 105.427 70.9058 110.272 57.6471 110.115C44.3883 109.958 31.6752 104.81 22.0396 95.6964C12.4041 86.5828 6.55325 74.1722 5.65234 60.9365V54.9041C6.12585 44.6429 9.58254 34.7431 15.5984 26.4191C21.6142 18.095 29.9276 11.7087 39.5187 8.04358C49.1099 4.37842 59.5617 3.59376 69.5922 5.78588C79.6226 7.978 88.7954 13.0516 95.9855 20.3842Z" fill="#FFF1F6"/>
<path d="M18.1395 16.3699C7.69729 26.3811 1.42934 39.9756 0.595336 54.4213C-0.238669 68.8669 4.42307 83.0931 13.6437 94.2406C22.8643 105.388 35.9604 112.631 50.2999 114.513C64.6395 116.395 79.1597 112.778 90.9424 104.387L107.142 111.622C107.748 111.888 108.419 111.967 109.069 111.849C109.72 111.732 110.321 111.423 110.795 110.962C111.27 110.501 111.596 109.91 111.733 109.262C111.869 108.615 111.81 107.942 111.562 107.328L104.546 90.97C112.996 79.3487 116.771 64.9739 115.121 50.6979C113.471 36.4219 106.518 23.2879 95.6407 13.9022C84.7633 4.51653 70.7569 -0.435043 56.4005 0.0300261C42.0442 0.495095 28.3872 6.34282 18.1395 16.4129V16.3699ZM95.9418 20.2985C105.308 29.8694 110.679 42.6504 110.962 56.0421L110.747 62.096C109.554 75.3063 103.433 87.5827 93.6013 96.4809C83.7698 105.379 70.9494 110.246 57.6926 110.114C44.4359 109.981 31.7154 104.858 22.0637 95.7652C12.4119 86.672 6.53703 74.2756 5.60869 61.0441V54.9902C6.04463 44.7013 9.47897 34.7647 15.4887 26.4041C21.4985 18.0436 29.8211 11.6244 39.4317 7.93703C49.0422 4.2497 59.5208 3.45532 69.5769 5.65173C79.633 7.84815 88.8274 12.9394 96.0276 20.2985H95.9418Z" fill="url(#paint0_linear_234_8584)"/>
<path d="M51.1663 83C50.1846 83.002 49.2131 82.8038 48.312 82.4175C47.4109 82.0313 46.5995 81.4654 45.9284 80.7549L29.6775 63.6317C28.9785 62.9618 28.424 62.1581 28.0477 61.2692C27.6714 60.3804 27.4812 59.4251 27.4885 58.4611C27.4958 57.4972 27.7006 56.5448 28.0903 55.6617C28.4801 54.7786 29.0468 53.9833 29.7559 53.324C30.465 52.6646 31.3019 52.155 32.2157 51.8261C33.1294 51.4972 34.101 51.3559 35.0716 51.4106C36.0421 51.4654 36.9913 51.7151 37.8615 52.1446C38.7318 52.5742 39.5049 53.1746 40.1341 53.9094L50.7059 65.0966L75.6482 33.704C76.2328 32.9707 76.9573 32.3587 77.7803 31.903C78.6034 31.4474 79.5088 31.1569 80.4451 31.0482C81.3813 30.9396 82.33 31.0149 83.2369 31.2698C84.1438 31.5247 84.9912 31.9542 85.7307 32.5339C86.4702 33.1135 87.0873 33.8319 87.5468 34.6481C88.0064 35.4643 88.2993 36.3622 88.4088 37.2906C88.5184 38.219 88.4425 39.1597 88.1855 40.059C87.9284 40.9584 87.4952 41.7987 86.9107 42.532L56.7688 80.3934C56.1226 81.175 55.3164 81.8116 54.4035 82.261C53.4906 82.7103 52.4918 82.9622 51.4733 83H51.1663Z" fill="url(#paint1_linear_234_8584)"/>
<defs>
<linearGradient id="paint0_linear_234_8584" x1="58" y1="-34.7396" x2="57.9999" y2="115" gradientUnits="userSpaceOnUse">
<stop offset="0.15" stop-color="#FF9454"/>
<stop offset="1" stop-color="#E85700"/>
</linearGradient>
<linearGradient id="paint1_linear_234_8584" x1="57.9729" y1="15.2917" x2="57.9729" y2="83" gradientUnits="userSpaceOnUse">
<stop offset="0.15" stop-color="#FF9454"/>
<stop offset="1" stop-color="#E85700"/>
</linearGradient>
</defs>
</svg>
