<svg width="24" height="24" viewBox="0 0 24 24" fill="none" xmlns="http://www.w3.org/2000/svg">
<path d="M13.7566 17.75H10.2266C9.12656 17.75 8.25656 17.21 7.76656 16.23L6.87656 14.44C6.66656 14.01 6.23656 13.75 5.75656 13.75H1.97656C1.56656 13.75 1.22656 13.41 1.22656 13C1.22656 12.59 1.56656 12.25 1.97656 12.25H5.76656C6.81656 12.25 7.75656 12.83 8.22656 13.77L9.11656 15.56C9.34656 16.02 9.71656 16.25 10.2366 16.25H13.7666C14.2466 16.25 14.6766 15.99 14.8866 15.56L15.7766 13.77C16.2466 12.83 17.1866 12.25 18.2366 12.25H21.9766C22.3866 12.25 22.7266 12.59 22.7266 13C22.7266 13.41 22.3866 13.75 21.9766 13.75H18.2366C17.7566 13.75 17.3266 14.01 17.1166 14.44L16.2266 16.23C15.7466 17.17 14.8066 17.75 13.7566 17.75Z" fill="#A7ACB2"/>
<path d="M19 8.75C16.93 8.75 15.25 7.07 15.25 5C15.25 2.93 16.93 1.25 19 1.25C21.07 1.25 22.75 2.93 22.75 5C22.75 7.07 21.07 8.75 19 8.75ZM19 2.75C17.76 2.75 16.75 3.76 16.75 5C16.75 6.24 17.76 7.25 19 7.25C20.24 7.25 21.25 6.24 21.25 5C21.25 3.76 20.24 2.75 19 2.75Z" fill="#A7ACB2"/>
<path d="M15 22.75H9C3.57 22.75 1.25 20.43 1.25 15V9C1.25 3.57 3.57 1.25 9 1.25H14C14.41 1.25 14.75 1.59 14.75 2C14.75 2.41 14.41 2.75 14 2.75H9C4.39 2.75 2.75 4.39 2.75 9V15C2.75 19.61 4.39 21.25 9 21.25H15C19.61 21.25 21.25 19.61 21.25 15V10C21.25 9.59 21.59 9.25 22 9.25C22.41 9.25 22.75 9.59 22.75 10V15C22.75 20.43 20.43 22.75 15 22.75Z" fill="#A7ACB2"/>
</svg>
