<svg width="24" height="24" viewBox="0 0 24 24" fill="none" xmlns="http://www.w3.org/2000/svg">
<path d="M11.9975 8.75048C11.5875 8.75048 11.2475 8.41048 11.2475 8.00048V3.81048L10.5275 4.53048C10.2375 4.82048 9.7575 4.82048 9.4675 4.53048C9.1775 4.24048 9.1775 3.76048 9.4675 3.47048L11.4675 1.47048C11.6775 1.26048 12.0075 1.19048 12.2875 1.31048C12.5675 1.42048 12.7475 1.70048 12.7475 2.00048V8.00048C12.7475 8.41048 12.4075 8.75048 11.9975 8.75048Z" fill="#A7ACB2"/>
<path d="M13.9975 4.75043C13.8075 4.75043 13.6175 4.68043 13.4675 4.53043L11.4675 2.53043C11.1775 2.24043 11.1775 1.76043 11.4675 1.47043C11.7575 1.18043 12.2375 1.18043 12.5275 1.47043L14.5275 3.47043C14.8175 3.76043 14.8175 4.24043 14.5275 4.53043C14.3775 4.68043 14.1875 4.75043 13.9975 4.75043Z" fill="#A7ACB2"/>
<path d="M16 22.75H8C2.25 22.75 2.25 19.7 2.25 17V16C2.25 13.77 2.25 11.25 7 11.25C8.19 11.25 8.63 11.54 9.25 12C9.28 12.03 9.32 12.05 9.35 12.09L10.37 13.17C11.23 14.08 12.79 14.08 13.65 13.17L14.67 12.09C14.7 12.06 14.73 12.03 14.77 12C15.39 11.53 15.83 11.25 17.02 11.25C21.77 11.25 21.77 13.77 21.77 16V17C21.75 20.82 19.82 22.75 16 22.75ZM7 12.75C3.75 12.75 3.75 13.77 3.75 16V17C3.75 19.74 3.75 21.25 8 21.25H16C18.98 21.25 20.25 19.98 20.25 17V16C20.25 13.77 20.25 12.75 17 12.75C16.28 12.75 16.13 12.84 15.7 13.16L14.73 14.19C14.01 14.95 13.04 15.37 12 15.37C10.96 15.37 9.99 14.95 9.27 14.19L8.3 13.16C7.87 12.84 7.72 12.75 7 12.75Z" fill="#A7ACB2"/>
<path d="M5 12.7502C4.59 12.7502 4.25 12.4102 4.25 12.0002V10.0002C4.25 8.06022 4.25 5.65022 7.93 5.30022C8.33 5.25022 8.71 5.56022 8.75 5.98022C8.79 6.39022 8.49 6.76022 8.07 6.80022C5.75 7.01022 5.75 7.95022 5.75 10.0002V12.0002C5.75 12.4102 5.41 12.7502 5 12.7502Z" fill="#A7ACB2"/>
<path d="M19.0014 12.7502C18.5914 12.7502 18.2514 12.4102 18.2514 12.0002V10.0002C18.2514 7.95022 18.2514 7.01022 15.9314 6.79022C15.5214 6.75022 15.2214 6.38022 15.2614 5.97022C15.3014 5.56022 15.6614 5.25022 16.0814 5.30022C19.7614 5.65022 19.7614 8.06022 19.7614 10.0002V12.0002C19.7514 12.4102 19.4114 12.7502 19.0014 12.7502Z" fill="#A7ACB2"/>
</svg>
