<svg width="24" height="24" viewBox="0 0 24 24" fill="none" xmlns="http://www.w3.org/2000/svg">
<path d="M12 8.75C11.9 8.75 11.81 8.73 11.71 8.69C11.43 8.58 11.25 8.3 11.25 8V2C11.25 1.59 11.59 1.25 12 1.25C12.41 1.25 12.75 1.59 12.75 2V6.19L13.47 5.47C13.76 5.18 14.24 5.18 14.53 5.47C14.82 5.76 14.82 6.24 14.53 6.53L12.53 8.53C12.39 8.67 12.19 8.75 12 8.75Z" fill="#A7ACB2"/>
<path d="M11.9975 8.75043C11.8075 8.75043 11.6175 8.68043 11.4675 8.53043L9.4675 6.53043C9.1775 6.24043 9.1775 5.76043 9.4675 5.47043C9.7575 5.18043 10.2375 5.18043 10.5275 5.47043L12.5275 7.47043C12.8175 7.76043 12.8175 8.24043 12.5275 8.53043C12.3775 8.68043 12.1875 8.75043 11.9975 8.75043Z" fill="#A7ACB2"/>
<path d="M16 22.75H8C2.25 22.75 2.25 19.7 2.25 17V16C2.25 13.77 2.25 11.25 7 11.25C8.19 11.25 8.63 11.54 9.25 12C9.28 12.03 9.32 12.05 9.35 12.09L10.37 13.17C11.23 14.08 12.79 14.08 13.65 13.17L14.67 12.09C14.7 12.06 14.73 12.03 14.77 12C15.39 11.53 15.83 11.25 17.02 11.25C21.77 11.25 21.77 13.77 21.77 16V17C21.75 20.82 19.82 22.75 16 22.75ZM7 12.75C3.75 12.75 3.75 13.77 3.75 16V17C3.75 19.74 3.75 21.25 8 21.25H16C18.98 21.25 20.25 19.98 20.25 17V16C20.25 13.77 20.25 12.75 17 12.75C16.28 12.75 16.13 12.84 15.7 13.16L14.73 14.19C14.01 14.95 13.04 15.37 12 15.37C10.96 15.37 9.99 14.95 9.27 14.19L8.3 13.16C7.87 12.84 7.72 12.75 7 12.75Z" fill="#A7ACB2"/>
<path d="M5 12.7505C4.59 12.7505 4.25 12.4105 4.25 12.0005V8.00045C4.25 6.06045 4.25 3.65045 7.93 3.30045C8.34 3.26045 8.71 3.56045 8.75 3.98045C8.79 4.39045 8.49 4.76045 8.07 4.80045C5.75 5.01045 5.75 5.95045 5.75 8.00045V12.0005C5.75 12.4105 5.41 12.7505 5 12.7505Z" fill="#A7ACB2"/>
<path d="M19.0014 12.7502C18.5914 12.7502 18.2514 12.4102 18.2514 12.0002V8.00022C18.2514 5.95022 18.2514 5.01022 15.9314 4.79022C15.5214 4.75022 15.2214 4.38022 15.2614 3.97022C15.3014 3.56022 15.6614 3.25022 16.0814 3.30022C19.7614 3.65022 19.7614 6.06022 19.7614 8.00022V12.0002C19.7514 12.4102 19.4114 12.7502 19.0014 12.7502Z" fill="#A7ACB2"/>
</svg>
