<svg width="24" height="24" viewBox="0 0 24 24" fill="none" xmlns="http://www.w3.org/2000/svg">
<path d="M11.9975 9.75048C11.5875 9.75048 11.2475 9.41048 11.2475 9.00048V3.81048L10.5275 4.53048C10.2375 4.82048 9.7575 4.82048 9.4675 4.53048C9.1775 4.24048 9.1775 3.76048 9.4675 3.47048L11.4675 1.47048C11.6775 1.26048 12.0075 1.19048 12.2875 1.31048C12.5675 1.42048 12.7475 1.70048 12.7475 2.00048V9.00048C12.7475 9.41048 12.4075 9.75048 11.9975 9.75048Z" fill="#A7ACB2"/>
<path d="M13.9975 4.75043C13.8075 4.75043 13.6175 4.68043 13.4675 4.53043L11.4675 2.53043C11.1775 2.24043 11.1775 1.76043 11.4675 1.47043C11.7575 1.18043 12.2375 1.18043 12.5275 1.47043L14.5275 3.47043C14.8175 3.76043 14.8175 4.24043 14.5275 4.53043C14.3775 4.68043 14.1875 4.75043 13.9975 4.75043Z" fill="#A7ACB2"/>
<path d="M13.7566 17.75H10.2266C9.17656 17.75 8.23656 17.17 7.76656 16.23L6.59656 13.89C6.55656 13.8 6.46656 13.75 6.37656 13.75H1.97656C1.56656 13.75 1.22656 13.41 1.22656 13C1.22656 12.59 1.56656 12.25 1.97656 12.25H6.38656C7.05656 12.25 7.65656 12.62 7.95656 13.22L9.12656 15.56C9.33656 15.99 9.76656 16.25 10.2466 16.25H13.7766C14.2566 16.25 14.6866 15.99 14.8966 15.56L16.0666 13.22C16.3666 12.62 16.9666 12.25 17.6366 12.25H21.9966C22.4066 12.25 22.7466 12.59 22.7466 13C22.7466 13.41 22.4066 13.75 21.9966 13.75H17.6366C17.5366 13.75 17.4566 13.8 17.4166 13.89L16.2466 16.23C15.7466 17.17 14.8066 17.75 13.7566 17.75Z" fill="#A7ACB2"/>
<path d="M15 22.7499H9C3.57 22.7499 1.25 20.4299 1.25 14.9999V11.9999C1.25 7.30993 2.99 4.95993 6.89 4.38993C7.31 4.32993 7.68 4.60993 7.74 5.01993C7.8 5.42993 7.52 5.80993 7.11 5.86993C3.97 6.32993 2.75 8.04993 2.75 11.9999V14.9999C2.75 19.6099 4.39 21.2499 9 21.2499H15C19.61 21.2499 21.25 19.6099 21.25 14.9999V11.9999C21.25 8.04993 20.03 6.32993 16.89 5.86993C16.48 5.80993 16.2 5.42993 16.26 5.01993C16.32 4.60993 16.7 4.32993 17.11 4.38993C21.01 4.95993 22.75 7.30993 22.75 11.9999V14.9999C22.75 20.4299 20.43 22.7499 15 22.7499Z" fill="#A7ACB2"/>
</svg>
