<svg width="32" height="32" viewBox="0 0 32 32" fill="none" xmlns="http://www.w3.org/2000/svg">
<g clip-path="url(#clip0_3_2999)">
<mask id="mask0_3_2999" style="mask-type:luminance" maskUnits="userSpaceOnUse" x="0" y="0" width="32" height="32">
<path d="M32 0H0V32H32V0Z" fill="white"/>
</mask>
<g mask="url(#mask0_3_2999)">
<path d="M16.0002 32C24.8368 32 32.0002 24.8366 32.0002 16C32.0002 7.16344 24.8368 0 16.0002 0C7.16369 0 0.000244141 7.16344 0.000244141 16C0.000244141 24.8366 7.16369 32 16.0002 32Z" fill="#F0F0F0"/>
<path d="M3.30758 6.25898C2.05077 7.89417 1.10308 9.77888 0.55127 11.8263H8.8749L3.30758 6.25898ZM31.4489 11.8263C30.8971 9.77896 29.9493 7.89427 28.6926 6.25908L23.1254 11.8263H31.4489ZM0.55127 20.1742C1.10315 22.2215 2.05083 24.1062 3.30759 25.7413L8.87474 20.1742H0.55127ZM25.7412 3.30765C24.106 2.05083 22.2214 1.10314 20.1739 0.55127V8.8748L25.7412 3.30765ZM6.25899 28.6925C7.89417 29.9494 9.7789 30.897 11.8263 31.4489V23.1254L6.25899 28.6925ZM11.8262 0.55127C9.77882 1.10314 7.89411 2.05083 6.25899 3.30758L11.8262 8.8748V0.55127ZM20.1739 31.4489C22.2213 30.897 24.106 29.9494 25.7411 28.6926L20.1739 23.1254V31.4489ZM23.1254 20.1742L28.6926 25.7414C29.9493 24.1062 30.8971 22.2215 31.4489 20.1742H23.1254Z" fill="#0052B4"/>
<path d="M31.8649 13.913H18.0873L18.0872 0.135438C17.404 0.0465 16.7076 0 16.0002 0C15.2928 0 14.5964 0.0465 13.9133 0.135438V13.913L0.135682 13.913C0.0467442 14.5962 0.000244141 15.2927 0.000244141 16C0.000244141 16.7074 0.0467442 17.4038 0.135682 18.087H13.9132L13.9132 31.8646C14.5964 31.9535 15.2928 32 16.0002 32C16.7076 32 17.404 31.9536 18.0872 31.8646V18.087L31.8649 18.087C31.9537 17.4038 32.0002 16.7074 32.0002 16C32.0002 15.2927 31.9537 14.5962 31.8649 13.913Z" fill="#D80027"/>
<path d="M20.1739 20.174L27.3136 27.3138C27.642 26.9856 27.9552 26.6424 28.2541 26.2866L22.1415 20.174L20.1739 20.174ZM11.8261 20.174L4.68628 27.3136C5.01453 27.642 5.35772 27.9553 5.71347 28.2542L11.8261 22.1414V20.174ZM11.8261 11.8261L4.68635 4.68619C4.35798 5.01443 4.04473 5.35762 3.74585 5.71337L9.85851 11.826L11.8261 11.8261ZM20.1739 11.8262L27.3137 4.68629C26.9855 4.35791 26.6423 4.04467 26.2865 3.74585L20.1739 9.85851V11.8262Z" fill="#D80027"/>
<path opacity="0.25" d="M26.1483 5.53241C28.4831 9.58857 23.7109 14.1471 17.5842 17.6737C11.4574 21.2004 4.07334 22.8827 2.73892 19.1747C1.15411 14.7711 3.19124 7.12132 9.318 3.59464C15.4447 0.0679575 23.8135 1.47628 26.1483 5.53241Z" fill="white"/>
</g>
</g>
<defs>
<clipPath id="clip0_3_2999">
<rect width="32" height="32" fill="white"/>
</clipPath>
</defs>
</svg>
