<svg width="24" height="24" viewBox="0 0 24 24" fill="none" xmlns="http://www.w3.org/2000/svg">
<path d="M11.9984 22.7604C10.9084 22.7604 9.82844 22.4404 8.97844 21.8104L4.67844 18.6004C3.53844 17.7504 2.64844 15.9804 2.64844 14.5604V7.12043C2.64844 5.58043 3.77844 3.94043 5.22844 3.40043L10.2184 1.53043C11.2084 1.16043 12.7684 1.16043 13.7584 1.53043L18.7584 3.40043C20.2084 3.94043 21.3384 5.58043 21.3384 7.12043V14.5504C21.3384 15.9704 20.4484 17.7404 19.3084 18.5904L15.0084 21.8004C14.1684 22.4404 13.0884 22.7604 11.9984 22.7604ZM10.7484 2.94043L5.75844 4.81043C4.89844 5.13043 4.14844 6.21043 4.14844 7.13043V14.5604C4.14844 15.5104 4.81844 16.8404 5.56844 17.4004L9.86844 20.6104C11.0184 21.4704 12.9684 21.4704 14.1184 20.6104L18.4184 17.4004C19.1784 16.8304 19.8384 15.5004 19.8384 14.5604V7.12043C19.8384 6.21043 19.0884 5.13043 18.2284 4.80043L13.2384 2.93043C12.5784 2.69043 11.4184 2.69043 10.7484 2.94043Z" fill="#A7ACB2"/>
<path d="M12 13.25C10.48 13.25 9.25 12.02 9.25 10.5C9.25 8.98 10.48 7.75 12 7.75C13.52 7.75 14.75 8.98 14.75 10.5C14.75 12.02 13.52 13.25 12 13.25ZM12 9.25C11.31 9.25 10.75 9.81 10.75 10.5C10.75 11.19 11.31 11.75 12 11.75C12.69 11.75 13.25 11.19 13.25 10.5C13.25 9.81 12.69 9.25 12 9.25Z" fill="#A7ACB2"/>
<path d="M12 16.25C11.59 16.25 11.25 15.91 11.25 15.5V12.5C11.25 12.09 11.59 11.75 12 11.75C12.41 11.75 12.75 12.09 12.75 12.5V15.5C12.75 15.91 12.41 16.25 12 16.25Z" fill="#A7ACB2"/>
</svg>
