<svg width="108" height="108" viewBox="0 0 108 108" fill="none" xmlns="http://www.w3.org/2000/svg">
<g opacity="0.9" clip-path="url(#clip0_110_58)">
<g clip-path="url(#clip1_110_58)">
<path d="M86.1096 35.8687L80.0772 31.377L76.7521 29.9467L76.3599 28.0403C77.3469 27.4306 77.9549 26.3464 77.9549 25.1831C77.9549 23.3327 76.4506 21.8267 74.5985 21.8267C72.7481 21.8267 71.242 23.3327 71.242 25.1831C71.242 26.4337 71.9489 27.5905 73.0546 28.1655L72.7365 30.0967L70.1529 31.344H69.9931L69.6965 31.5648L69.2746 31.7675L69.2895 31.868L56.3926 34.6461L57.8904 36.5525L69.7657 35.348L69.942 45.0598L70.9471 67.9173L70.8219 71.6281L74.0119 71.7615L73.6412 67.9223L75.312 48.8645L77.8034 68.0475L77.9269 71.5177H80.8896L80.2618 44.6248L80.2025 43.1995L80.186 42.8173L79.8647 43.0282L79.8812 43.4121L79.9322 44.6248L79.3407 56.8017V56.8132L80.532 71.1881H78.245L78.1329 68.0294L75.1851 46.5478L73.3116 67.9091L73.31 67.9239L73.6477 71.4155L71.1629 71.3117L71.275 67.9239L70.2715 45.0434L70.0853 34.7433L57.9629 36.111L56.8605 34.7087L69.6437 32.0147L69.6371 31.9586L69.8546 31.8548L70.1018 31.6736H70.2287L73.0331 30.3191L73.3907 28.1507L73.5192 28.0222L73.3083 27.9217C72.2538 27.424 71.5716 26.3497 71.5716 25.1831C71.5716 23.514 72.9293 22.1562 74.5985 22.1562C76.2677 22.1562 77.6254 23.5139 77.6254 25.1831C77.6254 26.269 77.0388 27.2774 76.0947 27.8162L75.9908 27.8755L76.4654 30.1824L79.896 31.6522L85.8938 36.1192L86.192 36.3416L86.3799 36.251L86.4062 36.0895L86.1096 35.8687ZM79.5055 34.4566L79.7361 39.9601L79.7526 40.3572L80.0739 40.1183L80.0575 39.7211L79.863 35.086L83.2656 37.3319L83.6364 37.5758L83.9807 37.4094L83.6611 37.1985L79.5055 34.4566ZM79.5055 34.4566L79.7361 39.9601L80.0575 39.7211L79.863 35.086L83.2656 37.3319L83.3398 37.2759H83.4996L83.6611 37.1985L79.5055 34.4566Z" fill="#3F3D56"/>
<path d="M104.317 54.5292L84.5707 39.5265L84.4026 39.2398L83.9165 23.0425C83.6067 23.0491 84.8096 22.4872 86.024 23.3885L102.04 35.2622C102.818 35.8389 103.317 36.7221 103.411 37.6844L104.897 52.9458C105.018 54.1865 104.09 55.045 104.317 54.5292Z" fill="white"/>
<path d="M98.9922 38.701L105.771 32.7469L107.682 31.0689C107.921 30.8585 107.57 30.5101 107.332 30.7193L100.553 36.6735L98.6427 38.3515C98.4032 38.5618 98.7539 38.9103 98.9922 38.701Z" fill="#3F3D56"/>
<path d="M102.873 31.6543L105.356 31.1789L106.638 30.9335C106.875 30.8881 107.45 30.6598 107.513 31.0238C107.569 31.3473 107.434 31.7399 107.38 32.0568L107.167 33.3047L106.734 35.8407C106.681 36.1543 107.173 36.1962 107.227 35.8843C107.474 34.4351 107.723 32.9864 107.969 31.5369C108.055 31.0279 108.006 30.3853 107.354 30.3338C107.024 30.3078 106.67 30.4239 106.349 30.4855L105.267 30.6925L102.785 31.1679C102.473 31.2276 102.56 31.7143 102.873 31.6543Z" fill="#3F3D56"/>
<path d="M95.5981 34.5106L95.3438 34.7202L101.234 41.8691L101.489 41.6595L95.5981 34.5106Z" fill="#3F3D56"/>
<path d="M7.42533 86.453C7.28621 86.2184 6.68437 86.4696 6.57372 86.2567C6.46346 86.0446 7.02265 85.7214 7.34212 84.983C7.39973 84.8499 7.76278 84.0108 7.49402 83.7519C6.98458 83.2611 4.65337 85.2864 3.83756 84.6236C3.65851 84.4782 3.53343 84.1878 2.99156 83.7164C2.77599 83.5289 2.64564 83.4442 2.51948 83.4757C2.34048 83.5204 2.3263 83.76 2.13435 84.231C1.84649 84.9374 1.67623 84.8948 1.50851 85.4584C1.384 85.8768 1.41244 86.1201 1.26593 86.1674C1.05861 86.2345 0.867775 85.7907 0.605025 85.8305C0.336904 85.871 0.174806 86.3877 0.123606 86.7746C0.0275214 87.5006 0.294142 87.9797 0.44192 88.4834C0.60251 89.0309 0.697821 89.8634 0.326958 91.042L-3.34375 101.384C-2.53337 99.262 -0.186935 93.4445 0.799035 91.2827C1.08367 90.6586 1.39794 90.0256 2.04324 89.7758C2.66451 89.5352 3.51775 89.6789 4.60553 89.4168C4.73257 89.3862 5.08511 89.2965 5.12948 89.0891C5.16617 88.9177 4.9588 88.822 4.99066 88.6615C5.03339 88.4461 5.44118 88.4435 5.94229 88.195C6.29564 88.0198 6.51578 87.8114 6.70508 87.6322C6.76216 87.5782 7.61053 86.7653 7.42533 86.453Z" fill="#F2F2F2"/>
<path d="M-3.92012 92.5928L-4.01367 91.7577L-3.97093 91.6944C-3.77314 91.4017 -3.67233 91.1158 -3.67112 90.8444C-3.67092 90.8013 -3.67294 90.7581 -3.67495 90.7141C-3.68302 90.54 -3.6931 90.3234 -3.58019 90.071C-3.51688 89.9303 -3.33906 89.6044 -3.07171 89.6448C-2.99973 89.6548 -2.94529 89.6879 -2.90396 89.7266C-2.89791 89.7169 -2.89166 89.7073 -2.88501 89.6968C-2.80174 89.5698 -2.73581 89.5153 -2.67231 89.4629C-2.62351 89.4226 -2.57311 89.3811 -2.49407 89.2827C-2.4594 89.2395 -2.43238 89.2016 -2.40959 89.1698C-2.34044 89.0734 -2.25012 88.9585 -2.09084 88.9605C-1.92067 88.9685 -1.83156 89.1093 -1.77248 89.2024C-1.66703 89.3685 -1.61925 89.4883 -1.5876 89.5677C-1.5761 89.5968 -1.563 89.6294 -1.55634 89.6395C-1.5015 89.7202 -1.05572 89.6448 -0.887779 89.6173C-0.51055 89.5544 -0.184129 89.5 -0.0496469 89.7379C0.0467296 89.9081 -0.0248466 90.1331 -0.26881 90.4246C-0.34482 90.5154 -0.42567 90.5843 -0.497446 90.6383C-0.437969 90.6738 -0.384747 90.7283 -0.363165 90.8138C-0.312356 91.0162 -0.486353 91.219 -0.880116 91.4174C-0.9779 91.467 -1.10956 91.5331 -1.29404 91.565C-1.38093 91.5799 -1.45916 91.5835 -1.5261 91.5856C-1.52751 91.6243 -1.53658 91.6662 -1.56017 91.7093C-1.62933 91.8364 -1.77328 91.8969 -1.99023 91.8823C-2.22894 91.8698 -2.42552 91.8243 -2.59891 91.7843C-2.75032 91.7497 -2.88077 91.7202 -2.98319 91.7271C-3.17312 91.7424 -3.3195 91.8944 -3.49127 92.0916L-3.92012 92.5928Z" fill="#F2F2F2"/>
<path d="M-3.92012 85.1602L-4.01367 84.3251L-3.97093 84.2618C-3.77314 83.9691 -3.67233 83.6832 -3.67112 83.4118C-3.67092 83.3686 -3.67294 83.3255 -3.67495 83.2815C-3.68302 83.1073 -3.6931 82.8908 -3.58019 82.6384C-3.51688 82.4976 -3.33906 82.1718 -3.07171 82.2122C-2.99973 82.2222 -2.94529 82.2553 -2.90396 82.294C-2.89791 82.2843 -2.89166 82.2747 -2.88501 82.2642C-2.80174 82.1371 -2.73581 82.0827 -2.67231 82.0303C-2.62351 81.99 -2.57311 81.9484 -2.49407 81.85C-2.4594 81.8069 -2.43238 81.769 -2.40959 81.7371C-2.34044 81.6408 -2.25012 81.5258 -2.09084 81.5279C-1.92067 81.5359 -1.83156 81.6767 -1.77248 81.7698C-1.66703 81.9359 -1.61925 82.0557 -1.5876 82.1351C-1.5761 82.1642 -1.563 82.1968 -1.55634 82.2069C-1.5015 82.2876 -1.05572 82.2121 -0.887779 82.1847C-0.51055 82.1218 -0.184129 82.0674 -0.0496469 82.3053C0.0467296 82.4755 -0.0248466 82.7005 -0.26881 82.992C-0.34482 83.0827 -0.42567 83.1517 -0.497446 83.2057C-0.437969 83.2412 -0.384747 83.2956 -0.363165 83.3811C-0.312356 83.5836 -0.486353 83.7864 -0.880116 83.9848C-0.9779 84.0344 -1.10956 84.1005 -1.29404 84.1324C-1.38093 84.1473 -1.45916 84.1509 -1.5261 84.1529C-1.52751 84.1916 -1.53658 84.2336 -1.56017 84.2767C-1.62933 84.4037 -1.77328 84.4642 -1.99023 84.4497C-2.22894 84.4372 -2.42552 84.3917 -2.59891 84.3517C-2.75032 84.3171 -2.88077 84.2876 -2.98319 84.2945C-3.17312 84.3098 -3.3195 84.4618 -3.49127 84.659L-3.92012 85.1602Z" fill="#F2F2F2"/>
<path d="M76.07 101.22C76.07 101.297 76.0081 101.359 75.9316 101.359H-20V101.082H75.9316C76.0081 101.082 76.07 101.144 76.07 101.22Z" fill="#E6E6E6"/>
<path d="M23.5977 64.9956C28.305 64.9956 32.1267 68.8173 32.1267 73.5246V76.333H23.5977V64.9956Z" fill="#2F2E41"/>
<path d="M26.9247 72.9006C29.2799 72.9006 31.1892 70.9913 31.1892 68.6361C31.1892 66.2809 29.2799 64.3716 26.9247 64.3716C24.5695 64.3716 22.6602 66.2809 22.6602 68.6361C22.6602 70.9913 24.5695 72.9006 26.9247 72.9006Z" fill="#FFB6B6"/>
<path d="M29.7862 90.4268L25.8337 88.1385C25.8337 88.1385 20.425 82.7208 20.269 85.2781C20.113 87.8355 16.8366 96.801 24.2995 98.1905C31.7624 99.5799 36.443 96.8756 36.443 96.8756L34.2587 92.7151L29.7862 90.4268Z" fill="#2F2E41"/>
<path d="M15.5856 81.9907L13.373 85.8902L15.7746 95.5345L17.6051 94.939L17.7875 86.1976L18.9075 83.945L15.5856 81.9907Z" fill="#FFB6B6"/>
<path d="M26.4065 76.8747C26.4065 76.8747 23.0846 74.9205 21.5287 75.7606C19.9728 76.6006 14.9238 82.7998 14.9238 82.7998L19.2866 85.8191L26.4065 76.8747Z" fill="white"/>
<path d="M24.5804 98.3311L18.1539 97.8159L17.875 101.4L25.1967 101.291L24.5804 98.3311Z" fill="#FFB6B6"/>
<path d="M29.2653 73.0566L24.8968 73.5767L24.2727 75.761L21.1523 76.8011L22.9206 88.0345C22.9206 88.0345 27.9132 88.7626 29.7854 91.3629C31.6576 93.9632 34.986 94.3793 34.986 94.3793V86.1217L34.778 75.1369L30.4095 74.4088L29.2653 73.0566Z" fill="white"/>
<path d="M33.6348 94.4835C33.6348 94.4835 40.9157 93.8594 42.3718 95.3156C43.828 96.7718 44.3481 99.4761 42.5799 100.724C40.8117 101.972 36.0271 101.66 36.0271 101.66L35.0909 96.4598L33.6348 94.4835Z" fill="#2F2E41"/>
<path d="M37.0667 95.9395L23.753 97.9157L23.6191 101.695L36.0266 101.66L37.0667 95.9395Z" fill="#2F2E41"/>
<path d="M38.5227 85.0181L37.8466 88.7105L30.8778 96.1995L29.6816 94.6913L34.3622 87.3064L34.6743 84.8101L38.5227 85.0181Z" fill="#FFB6B6"/>
<path d="M22.5794 98.6493C22.5794 98.6493 19.9913 98.901 19.7411 99.5524C19.491 100.204 19.8289 101.529 19.8289 101.529L11.6941 100.564C11.1058 100.495 10.7503 99.8698 11.0017 99.3335C11.5296 98.2068 12.7476 96.6609 15.4118 96.9427C19.5297 97.3783 21.4363 96.5659 21.4363 96.5659L23.6068 98.1985L22.5794 98.6493Z" fill="#2F2E41"/>
<path d="M32.334 74.7729C32.334 74.7729 36.1825 74.981 37.0146 76.5412C37.8467 78.1014 38.6268 86.0583 38.6268 86.0583L33.3221 86.1623L32.334 74.7729Z" fill="white"/>
<path d="M23.3887 92.7672L24.5328 99.112L28.0692 98.4658L26.093 91.415L23.3887 92.7672Z" fill="#FFB6B6"/>
<path d="M28.5365 97.604L23.752 97.708L24.064 103.117C24.064 103.117 23.96 106.131 26.5603 106.132C29.1606 106.133 30.2007 106.341 30.2007 105.821C30.2007 105.301 29.6807 102.24 29.6807 102.24L28.5365 98.9562V97.604Z" fill="#2F2E41"/>
<path d="M26.5612 93.2352L22.6087 94.0673C20.0209 88.382 18.4436 82.9127 18.2402 77.7373C18.2402 77.7373 17.8241 74.5129 21.0485 74.4089C24.2729 74.3049 24.689 79.0895 24.689 79.0895L26.5612 93.2352Z" fill="#2F2E41"/>
<path d="M30.3528 97.6729C31.3628 96.7453 31.7172 95.4877 31.1443 94.8638C30.5714 94.24 29.2881 94.4862 28.2781 95.4137C27.268 96.3413 26.9137 97.599 27.4866 98.2228C28.0595 98.8467 29.3427 98.6005 30.3528 97.6729Z" fill="#FFB6B6"/>
<path d="M17.277 98.6913C18.1161 98.5757 18.6446 97.3807 18.4575 96.0222C18.2704 94.6637 17.4385 93.6561 16.5994 93.7717C15.7603 93.8873 15.2318 95.0823 15.4189 96.4408C15.6061 97.7993 16.438 98.8069 17.277 98.6913Z" fill="#FFB6B6"/>
<path d="M35.0898 72.086C34.8729 71.4265 34.7695 72 34.2695 71.5C33.972 71.2025 33.4571 71.2613 33.4042 70.341C33.3038 68.5916 30.6339 64.0917 29.1097 63.2273C27.7695 62.9997 27.7695 63 26.2695 62.5C26.2695 62.5 24.4034 63.4833 23.465 63.9466C22.5266 64.4099 21.6819 65.1519 21.3169 66.1327C21.0276 66.9102 21.0596 67.764 20.9629 68.5879C20.6936 70.8832 19.407 73.0661 19.6831 75.3606C19.7693 76.0764 20.0414 76.8167 20.6267 77.2378C21.212 77.6588 22.1576 77.613 22.5429 77.0035C22.6744 76.7956 22.73 76.5488 22.8426 76.3301C22.9553 76.1114 23.1589 75.9074 23.4048 75.9142C23.7745 75.9245 23.9627 76.4205 23.8169 76.7604C23.6712 77.1003 23.3286 77.3055 23.0069 77.4881C23.773 77.8327 24.7233 77.7254 25.3932 77.2186C26.0631 76.7118 26.4248 75.8265 26.3015 74.9956C26.1278 73.8247 24.422 74.0671 24.2211 72.9005C24.0748 72.0513 23.1296 69.85 23.2695 68.9998C23.4095 68.1495 23.2695 68.5879 23.7695 67.4998C24.2695 66.4998 25.4862 65.7875 26.3015 65.4998C27.1169 65.2121 28.2695 65.4998 28.7695 65.4998C29.7695 65.9998 30.5682 66.2087 30.8779 67.6999C31.1876 69.191 30.9013 72.5788 29.626 73.4113C30.1363 73.7596 30.5432 74.2575 30.7827 74.8271C30.9183 75.1498 31.0063 75.5028 31.2315 75.7708C31.6615 76.2826 32.4556 76.3137 33.0885 76.0985C33.8733 75.8317 34.5443 75.2456 34.9143 74.5038C35.2843 73.7621 35.3488 72.8735 35.0898 72.086Z" fill="#2F2E41"/>
<path d="M86.1084 35.8685L86.082 36.0283L85.8926 36.119L86.1908 36.3414L86.3786 36.2508L86.405 36.0893L86.1084 35.8685ZM83.4984 37.2757H83.3386L83.2644 37.3317L83.042 37.4965L82.6201 37.6991L82.635 37.7997L80.0562 39.7209L79.7349 39.9598L72.0449 45.6857L73.5427 47.5922L75.1657 46.5212L79.8799 43.4119L79.8635 43.0279L73.6152 47.1506L72.5129 45.7484L79.7514 40.3569L80.0727 40.118L82.9892 37.9463L82.9826 37.8903L83.2001 37.7865L83.4473 37.6052H83.5742L83.6351 37.5756L83.9795 37.4091L83.6599 37.1982L83.4984 37.2757ZM100.8 49.5579L93.4227 37.3086L90.0976 35.8784L89.7054 33.9719C90.6924 33.3623 91.3004 32.2781 91.3004 31.1148C91.3004 29.2643 89.7961 27.7583 87.944 27.7583C86.0936 27.7583 84.5875 29.2643 84.5875 31.1148C84.5875 32.3654 85.2944 33.5221 86.4001 34.0972L86.1084 35.8685L86.082 36.0283L85.8926 36.119L83.6599 37.1982L83.4984 37.2757H83.3386L83.2644 37.3317L83.042 37.4965L82.6201 37.6991L82.635 37.7997L80.0562 39.7209L79.7349 39.9598L72.0449 45.6857L73.5427 47.5922L75.1657 46.5212L79.8799 43.4119L80.2013 43.1993L83.1112 41.2797L83.2875 50.9915L84.2926 73.849L84.1674 77.5597L87.3574 77.6932L86.9867 73.8539L88.6575 54.7961L91.1489 73.9792L91.2724 77.4493H94.2351L93.6073 50.5565L93.2085 41.0177L99.3002 51.4644L100.8 49.5579ZM92.851 40.3883L93.2777 50.5565L92.6862 62.7333V62.7448L93.8775 77.1198H91.5905L91.4784 73.961L90.6512 63.0843L88.5306 52.4794L86.6571 73.8407L86.6554 73.8556L86.9932 77.3471L84.5084 77.2433L84.6205 73.8556V62.6097L83.617 50.975L83.4308 40.675L80.1848 42.817L79.8635 43.0279L73.6152 47.1506L72.5129 45.7484L79.7514 40.3569L80.0727 40.118L82.9892 37.9463L82.9826 37.8903L83.2001 37.7865L83.4473 37.6052H83.5742L83.6351 37.5756L83.9795 37.4091L86.1908 36.3414L86.3786 36.2508L86.405 36.0893L86.7362 34.0823L86.8647 33.9538L86.6538 33.8533C85.5992 33.3557 84.9171 32.2814 84.9171 31.1148C84.9171 29.4456 86.2748 28.0878 87.944 28.0878C89.6132 28.0878 90.9709 29.4456 90.9709 31.1148C90.9709 32.2006 90.3843 33.209 89.4401 33.7478L89.3363 33.8072L89.8109 36.114L93.2415 37.5838L100.332 49.6206L99.2294 51.0228L92.851 40.3883ZM83.6599 37.1982L83.4984 37.2757H83.3386L83.2644 37.3317L83.042 37.4965L82.6201 37.6991L82.635 37.7997L80.0562 39.7209L79.7349 39.9598L79.7514 40.3569L80.0727 40.118L82.9892 37.9463L82.9826 37.8903L83.2001 37.7865L83.4473 37.6052H83.5742L83.6351 37.5756L83.9795 37.4091L83.6599 37.1982Z" fill="#3F3D56"/>
</g>
</g>
<defs>
<clipPath id="clip0_110_58">
<rect width="128" height="128" fill="white" transform="translate(-20)"/>
</clipPath>
<clipPath id="clip1_110_58">
<rect width="128" height="84.3468" fill="white" transform="translate(-20 21.8267)"/>
</clipPath>
</defs>
</svg>
