<svg width="96" height="36" viewBox="0 0 96 36" fill="none" xmlns="http://www.w3.org/2000/svg">
<g clip-path="url(#clip0_3_2958)">
<path d="M24 33.7812C32.7157 33.7812 39.7812 26.7157 39.7812 18C39.7812 9.28426 32.7157 2.21875 24 2.21875C15.2843 2.21875 8.21875 9.28426 8.21875 18C8.21875 26.7157 15.2843 33.7812 24 33.7812Z" fill="#017543"/>
<path d="M35.4926 16.03C35.3989 14.8131 35.1745 12.3425 35.1745 12.3425H35.3157C35.3251 12.3425 35.3343 12.3402 35.3425 12.3358C35.3508 12.3315 35.3579 12.3252 35.3633 12.3176C35.3686 12.3099 35.372 12.3011 35.3732 12.2918C35.3744 12.2826 35.3733 12.2731 35.3701 12.2644C35.2982 12.0738 35.1039 11.5738 34.9095 11.1894C34.9046 11.1798 34.8972 11.1717 34.8881 11.1661C34.8789 11.1605 34.8684 11.1575 34.8576 11.1575C34.8469 11.1575 34.8363 11.1605 34.8272 11.1661C34.818 11.1717 34.8106 11.1798 34.8057 11.1894L34.5832 11.6344C34.5783 11.6442 34.5763 11.6553 34.5776 11.6663L34.9689 15.3294C34.9689 15.3294 35.2126 17.8363 34.5382 18.5169C34.0189 19.0425 33.6232 19.3831 33.4682 19.5119C33.4636 19.5158 33.4603 19.5211 33.459 19.5271C33.4576 19.533 33.4582 19.5392 33.4607 19.5448C33.4631 19.5503 33.4673 19.5549 33.4726 19.5579C33.478 19.5609 33.4841 19.5621 33.4901 19.5613C33.8407 19.5175 35.0814 19.2756 35.3295 18.0413C35.3295 18.0431 35.5864 17.2463 35.4926 16.03Z" fill="white"/>
<path d="M33.5469 17.7824C33.5469 17.7824 33.8306 18.0049 33.7444 16.1255C34.205 16.8261 34.5831 17.4224 34.7319 17.7093C34.7348 17.715 34.7394 17.7197 34.7452 17.7226C34.7509 17.7256 34.7574 17.7266 34.7638 17.7257C34.7701 17.7247 34.776 17.7217 34.7806 17.7172C34.7852 17.7127 34.7883 17.7069 34.7894 17.7005C34.8137 17.5755 34.8362 17.3155 34.7269 16.9193C34.6644 16.7024 34.2175 15.963 33.6825 15.1286L33.5094 12.4411L33.6875 12.5624C33.6915 12.5652 33.6963 12.5666 33.7012 12.5666C33.7061 12.5665 33.7109 12.5649 33.7149 12.562C33.7189 12.5592 33.7218 12.5551 33.7234 12.5505C33.725 12.5459 33.7251 12.5408 33.7237 12.5361L33.3275 11.1343C33.3263 11.13 33.324 11.1261 33.3207 11.1231C33.3175 11.12 33.3134 11.118 33.3091 11.1171C33.3047 11.1163 33.3002 11.1167 33.2961 11.1183C33.2919 11.1199 33.2883 11.1226 33.2856 11.1261L32.9219 11.6005C32.9199 11.6029 32.9184 11.6057 32.9175 11.6087C32.9167 11.6117 32.9164 11.6149 32.9169 11.618C32.9337 11.743 33.1144 13.0555 33.2781 14.5049C33.0244 14.1161 32.7681 13.7293 32.5387 13.3849V12.3461L32.6519 12.4374C32.6568 12.4414 32.6629 12.4436 32.6692 12.4438C32.6755 12.444 32.6817 12.4421 32.6868 12.4384C32.6919 12.4347 32.6957 12.4294 32.6975 12.4233C32.6993 12.4173 32.6991 12.4108 32.6969 12.4049L32.2631 11.2174C32.2615 11.2128 32.2587 11.2087 32.2551 11.2055C32.2514 11.2023 32.247 11.2 32.2423 11.1989C32.2376 11.1979 32.2326 11.198 32.2279 11.1994C32.2233 11.2008 32.219 11.2033 32.2156 11.2068C32.1287 11.2955 31.8981 11.558 31.9181 11.8205C31.9419 12.1436 32.0537 12.1893 32.0537 12.1893C32.0537 12.1893 32.0662 12.3924 32.0869 12.7099C31.8537 12.3636 31.7037 12.1436 31.7037 12.1436H31.8481C31.8564 12.1437 31.8646 12.1414 31.8716 12.137C31.8786 12.1325 31.8841 12.1261 31.8875 12.1185C31.8909 12.1109 31.892 12.1025 31.8906 12.0943C31.8893 12.0861 31.8856 12.0785 31.88 12.0724L31.16 11.243C31.1546 11.2369 31.1476 11.2324 31.1398 11.23C31.1319 11.2277 31.1236 11.2277 31.1158 11.2299C31.1079 11.2321 31.1008 11.2365 31.0954 11.2426C31.0899 11.2487 31.0863 11.2562 31.085 11.2643C31.0436 11.535 31.0227 11.8085 31.0225 12.0824C31.0225 12.1016 31.0284 12.1203 31.0394 12.1361C31.1306 12.268 31.5894 12.9299 32.1569 13.7611C32.2156 14.6518 32.2856 15.6793 32.3256 16.1468C32.4044 17.0586 32.4212 17.893 31.9181 17.893C31.9181 17.893 31.6281 17.9124 31.2594 17.2718C30.8906 16.6311 30.1344 18.688 30.1344 18.688C30.1344 18.688 29.5881 19.9311 29.405 17.4243C29.4047 17.4179 29.4023 17.4119 29.3981 17.4072C29.3939 17.4025 29.3882 17.3993 29.382 17.3983C29.3757 17.3973 29.3693 17.3984 29.3639 17.4015C29.3584 17.4047 29.3541 17.4096 29.3519 17.4155C29.2169 17.7861 29.1469 18.1773 29.145 18.5718C29.1256 19.3843 29.7269 19.7936 30.0569 19.6968C30.3869 19.5999 30.7081 18.2224 31.0225 17.9124C31.0225 17.9124 31.3975 18.6686 32.1906 18.5136C32.9837 18.3586 32.8306 16.7674 32.8306 16.7674L32.5887 14.3961C32.8562 14.7905 33.1331 15.2005 33.3962 15.5949C33.4775 16.4374 33.5406 17.2361 33.5469 17.7824Z" fill="white"/>
<path d="M29.6281 16.4788C29.6281 16.4788 29.8606 17.7588 29.6668 18.4963C29.6668 18.4963 29.7056 18.6707 29.9168 18.3994C30.1281 18.1282 30.2074 17.41 30.1493 16.9444C30.0912 16.4788 29.6256 12.5794 29.6256 12.5794C29.6256 12.5794 29.9168 12.8294 30.0331 12.6957C30.1493 12.5619 29.6837 12.0644 29.5093 11.1769C29.5093 11.1769 29.3724 10.9894 29.1399 11.2988C28.9074 11.6082 29.0437 12.0944 29.0437 12.0944L29.6281 16.4788ZM28.1924 12.9094C28.2312 13.5688 28.4837 17.2544 28.4837 17.2544C28.4837 17.2544 28.7831 18.7594 26.7337 19.6638C26.7246 19.6677 26.717 19.6745 26.712 19.683C26.707 19.6916 26.7048 19.7015 26.7058 19.7113C26.7068 19.7212 26.7108 19.7305 26.7174 19.7379C26.724 19.7453 26.7328 19.7504 26.7424 19.7525C26.8793 19.7832 27.1293 19.8063 27.4924 19.7132C28.0743 19.5632 28.5718 19.0782 28.7787 18.1469C28.9856 17.2157 28.5787 12.4438 28.5787 12.4438C28.5787 12.4438 28.7143 12.6569 28.7724 12.56C28.8212 12.4788 28.5724 11.5688 28.4887 11.2707C28.4855 11.2592 28.4797 11.2487 28.4718 11.2399C28.4638 11.2311 28.454 11.2243 28.4429 11.22C28.4319 11.2157 28.42 11.214 28.4082 11.2151C28.3964 11.2162 28.385 11.22 28.3749 11.2263C28.2349 11.31 27.9737 11.495 27.9418 11.7188C27.938 11.7446 27.9412 11.7709 27.9512 11.795C28.0878 12.152 28.1692 12.5278 28.1924 12.9094Z" fill="white"/>
<path d="M26.0543 14.0231L26.3812 18.7606C26.3817 18.7694 26.3851 18.7777 26.3907 18.7845C26.3963 18.7913 26.4039 18.7961 26.4124 18.7983C26.4209 18.8005 26.4299 18.8 26.4381 18.7968C26.4463 18.7937 26.4532 18.788 26.458 18.7806C26.5637 18.6231 26.7518 18.2106 26.7374 17.2738C26.7293 16.7231 26.6968 15.8306 26.6618 14.985C27.2387 15.9169 27.8249 16.9225 28.1618 17.6688C28.1656 17.6769 28.172 17.6836 28.1799 17.6879C28.1879 17.6922 28.197 17.6937 28.2059 17.6924C28.2148 17.6911 28.2231 17.6869 28.2294 17.6805C28.2358 17.6741 28.2399 17.6658 28.2412 17.6569C28.2666 17.4323 28.2296 17.205 28.1343 17C27.993 16.6875 27.4593 15.4288 26.6168 13.9375C26.5868 13.2638 26.563 12.7738 26.563 12.7738H26.6255C26.6385 12.7738 26.6512 12.7707 26.6627 12.7648C26.6742 12.7588 26.6841 12.7503 26.6916 12.7398C26.6991 12.7293 26.704 12.7171 26.7059 12.7043C26.7078 12.6915 26.7066 12.6785 26.7024 12.6663C26.5912 12.3375 26.2562 11.3638 26.1755 11.2994C26.0787 11.2219 25.8262 11.5325 25.8262 11.7263C25.8322 11.8609 25.8653 11.9929 25.9237 12.1144L25.9743 12.8563C25.8399 12.6419 25.6999 12.4263 25.5549 12.2113C25.5549 12.2113 25.8843 12.3663 25.8262 12.2113C25.7743 12.0725 25.1774 11.3944 24.8587 11.1544C24.8494 11.1476 24.8385 11.1435 24.8271 11.1426C24.8157 11.1416 24.8042 11.1438 24.794 11.1489C24.7837 11.154 24.775 11.1618 24.7689 11.1715C24.7628 11.1811 24.7595 11.1923 24.7593 11.2038V12.0163C24.7593 12.1906 24.973 12.3844 25.0093 12.4431C25.0274 12.4688 25.4818 13.1331 26.0543 14.0231Z" fill="white"/>
<path d="M19.7344 17.6425C19.7344 17.6425 19.6094 17.7562 19.3863 17.9331L19.4182 17.2456C19.4182 17.2403 19.4164 17.2351 19.4131 17.2309C19.4097 17.2267 19.4051 17.2237 19.3999 17.2225C19.3947 17.2213 19.3892 17.2218 19.3844 17.2241C19.3795 17.2264 19.3756 17.2302 19.3732 17.235L19.0169 18.0412C19.0169 18.0412 19.0044 18.1156 18.9938 18.2337C18.3888 18.6912 17.7423 19.0909 17.0626 19.4275C17.045 19.4358 17.0305 19.4495 17.0213 19.4665C17.012 19.4836 17.0085 19.5032 17.0111 19.5225C17.0138 19.5417 17.0225 19.5596 17.036 19.5735C17.0495 19.5875 17.0672 19.5968 17.0863 19.6C17.1501 19.6045 17.214 19.5951 17.2738 19.5725C17.8635 19.3679 18.437 19.1193 18.9894 18.8287C19.0301 19.3569 19.2301 19.9312 19.9319 19.7794C21.1732 19.5106 21.6969 18.0431 21.6969 18.0431C22.3369 19.6269 23.8307 19.7769 23.9863 19.7125C24.0951 19.6681 24.1738 19.3819 24.2138 19.2156C24.2208 19.1844 24.2155 19.1518 24.1991 19.1243C24.1827 19.0969 24.1564 19.0768 24.1257 19.0681C23.1488 18.7906 23.3757 18.3181 23.6951 18.1469C24.0251 17.9725 25.7319 17.4869 25.7319 17.4869C25.9351 17.3731 25.9969 17.1419 26.0157 16.9962C26.0178 16.98 26.0165 16.9636 26.0117 16.9479C26.007 16.9323 25.999 16.9178 25.9882 16.9055C25.9775 16.8932 25.9642 16.8833 25.9493 16.8766C25.9344 16.8698 25.9183 16.8663 25.9019 16.8662H23.1294C23.5062 16.6736 23.8949 16.5053 24.2932 16.3625H24.5001C24.5096 16.3624 24.5189 16.3598 24.5271 16.3549C24.5352 16.35 24.5419 16.343 24.5465 16.3347C24.551 16.3263 24.5532 16.3169 24.5529 16.3074C24.5525 16.2979 24.5496 16.2886 24.5444 16.2806L24.5088 16.2262C25.0907 16.0906 25.4013 15.6637 25.4207 15.3306C25.4401 14.9975 25.0319 14.6162 24.6832 14.48C24.3344 14.3437 24.0819 14.5387 23.8707 14.9456C23.6594 15.3525 23.8707 15.78 23.8707 15.78L22.3751 16.4375L22.1438 17.1331C22.1389 17.1473 22.1373 17.1625 22.1391 17.1774C22.141 17.1923 22.1462 17.2066 22.1544 17.2192C22.1626 17.2318 22.1735 17.2424 22.1864 17.2501C22.1993 17.2578 22.2138 17.2625 22.2288 17.2637L22.7438 17.3112C23.2094 17.2137 23.7332 17.5437 23.7332 17.5437C22.8219 17.99 23.0351 18.785 23.0351 18.785C21.9813 18.515 21.9288 16.9037 21.8907 16.3606C21.8588 15.9194 21.3907 14.8269 21.2169 14.4312C21.2124 14.4183 21.2039 14.4071 21.1927 14.3992C21.1815 14.3912 21.1682 14.387 21.1544 14.387C21.1407 14.387 21.1273 14.3912 21.1161 14.3992C21.1049 14.4071 21.0965 14.4183 21.0919 14.4312L20.9013 14.9231C20.8868 14.96 20.8846 15.0005 20.8951 15.0387L21.5388 17.4244C21.5388 17.4244 21.0151 18.6269 20.2194 19.015C19.4238 19.4031 19.3444 18.7819 19.3444 18.7819L19.3526 18.6131C19.5883 18.4757 19.8076 18.312 20.0063 18.125C20.7044 17.4269 20.9957 17.0387 20.5494 15.6031H20.6663C20.6785 15.6033 20.6905 15.6002 20.7011 15.5943C20.7118 15.5884 20.7207 15.5798 20.727 15.5694C20.7333 15.559 20.7368 15.5471 20.7371 15.5349C20.7374 15.5228 20.7346 15.5107 20.7288 15.5C20.6207 15.2994 20.3732 14.8675 20.1813 14.75C19.9313 14.595 19.8688 15.3019 19.8688 15.4431C19.8688 15.5844 20.0826 15.6037 20.0826 15.6037L20.4319 16.5156C20.4248 16.7481 20.3565 16.9747 20.2341 17.1725C20.1117 17.3703 19.9394 17.5324 19.7344 17.6425ZM24.4007 15.63C24.3769 15.635 24.3532 15.64 24.3307 15.6431C24.3307 15.6431 24.3244 15.615 24.3163 15.5731C24.3181 15.5824 24.3217 15.5912 24.3269 15.5991C24.3321 15.607 24.3389 15.6138 24.3467 15.6191C24.3545 15.6243 24.3633 15.628 24.3726 15.6299C24.3819 15.6318 24.3914 15.6318 24.4007 15.63Z" fill="white"/>
<path d="M20.9174 13.9376L21.383 12.6788C21.383 12.6788 21.2861 13.782 21.558 14.1507C21.8299 14.5195 22.4699 14.6938 23.0711 13.7238C23.0711 13.7238 23.3643 14.2476 23.8674 14.2282C24.3705 14.2088 24.4299 13.6076 24.4299 13.2001C24.4299 12.7926 24.2355 11.9782 24.2355 11.9782C24.2355 11.9782 24.7786 12.327 24.643 11.9782C24.5074 11.6295 24.158 11.1357 24.0224 11.1207C23.9086 11.1076 23.7136 11.4713 23.653 11.5901C23.6471 11.6013 23.6438 11.6137 23.6433 11.6263C23.6427 11.6389 23.645 11.6515 23.6499 11.6632C23.7305 11.8507 24.0911 12.7432 24.0249 13.2776C23.9474 13.8788 23.5205 13.8207 23.3261 13.1807C23.1386 12.5557 23.3711 11.8682 22.9561 11.1507C22.952 11.1439 22.9462 11.1382 22.9393 11.1341C22.9324 11.13 22.9247 11.1276 22.9167 11.1272C22.9087 11.1267 22.9007 11.1282 22.8934 11.1316C22.8861 11.1349 22.8798 11.14 22.8749 11.1463L22.6249 11.4738C22.6205 11.4798 22.6176 11.4866 22.6161 11.4939C22.6147 11.5011 22.615 11.5086 22.6168 11.5157C22.6643 11.6926 22.9668 12.8482 22.8236 13.2776C22.6686 13.7432 21.9318 14.267 21.718 13.5276C21.5305 12.8757 21.7805 12.0576 21.843 11.8763C21.847 11.8647 21.8484 11.8523 21.847 11.8401C21.8456 11.8279 21.8414 11.8161 21.8349 11.8057L21.7018 11.5913C21.6954 11.5811 21.6869 11.5725 21.6769 11.5659C21.6668 11.5593 21.6555 11.5549 21.6436 11.5532C21.6317 11.5514 21.6196 11.5522 21.6081 11.5555C21.5965 11.5589 21.5858 11.5647 21.5768 11.5726C21.4105 11.7201 21.0205 12.1107 20.9449 12.5963C20.8474 13.217 20.6949 13.7601 20.4011 13.6245C20.1074 13.4888 20.0155 12.562 20.1449 11.827C20.1453 11.8242 20.145 11.8214 20.1438 11.8189C20.1427 11.8164 20.1409 11.8142 20.1386 11.8127C20.1363 11.8112 20.1336 11.8104 20.1308 11.8104C20.1281 11.8103 20.1254 11.8111 20.123 11.8126C20.083 11.8407 20.0043 11.9376 19.9355 12.2663C19.838 12.732 19.838 13.5082 20.248 14.0513C20.658 14.5945 20.9174 13.9376 20.9174 13.9376ZM19.3705 12.3882C19.683 12.3882 19.5399 12.0757 19.5399 12.0757C19.6166 11.9164 19.661 11.7435 19.6705 11.567C19.7011 11.2976 19.5368 11.2107 19.3968 11.1845C19.3335 11.173 19.2682 11.1812 19.2096 11.2079C19.1511 11.2346 19.1021 11.2785 19.0693 11.3338C18.863 11.6826 19.1224 12.2088 19.1224 12.2088C19.1224 12.2088 18.653 12.9132 18.2349 13.1613C17.8168 13.4095 17.8961 13.5132 17.8961 13.5132C18.6136 13.5001 19.3705 12.3882 19.3705 12.3882ZM19.3443 11.5463C19.4393 11.497 19.4555 11.6045 19.4311 11.6713C19.4168 11.7093 19.4003 11.7465 19.3818 11.7826C19.3818 11.7826 19.3068 11.9113 19.2611 11.812C19.238 11.7655 19.2337 11.7119 19.2492 11.6624C19.2647 11.6129 19.2988 11.5713 19.3443 11.5463Z" fill="white"/>
<path d="M17.5051 17.4943C17.4957 17.3193 17.4557 16.6962 17.4076 15.9525L17.4776 15.91C18.0219 16.5825 18.6138 15.8475 18.6138 15.8475C18.7901 16.1675 19.0944 16.1675 19.3344 16.0875C19.5744 16.0075 19.5582 15.0475 19.5101 14.8868C19.4707 14.7543 19.2551 14.9075 19.1819 14.9637C19.1748 14.9693 19.1693 14.9767 19.166 14.9852C19.1627 14.9937 19.1617 15.0029 19.1632 15.0118C19.1857 15.15 19.2638 15.7312 18.9757 15.7031C18.6876 15.675 18.7526 15.1581 18.7744 15.0081C18.7752 15.0032 18.7749 14.9982 18.7734 14.9934C18.772 14.9886 18.7695 14.9843 18.7661 14.9806C18.7628 14.9769 18.7586 14.9741 18.754 14.9722C18.7494 14.9704 18.7444 14.9696 18.7394 14.97L18.6694 14.975C18.6627 14.9757 18.6563 14.9784 18.6511 14.9827C18.6458 14.987 18.642 14.9928 18.6401 14.9993C18.3469 16.04 17.8901 15.7493 17.8276 15.4793C17.7651 15.2093 17.8119 14.9993 17.6994 14.9831C17.6588 14.9768 17.5176 15.0712 17.3557 15.1931C17.2757 13.9375 17.1876 12.645 17.1876 12.645C17.1876 12.645 17.5713 12.9656 17.4913 12.5331C17.4288 12.1843 17.1851 11.5156 17.0944 11.27C17.0909 11.2606 17.085 11.2523 17.0772 11.246C17.0694 11.2396 17.0601 11.2355 17.0502 11.2339C17.0403 11.2323 17.0302 11.2333 17.0208 11.2369C17.0115 11.2405 17.0032 11.2465 16.9969 11.2543L16.6632 11.6668C16.657 11.6743 16.6529 11.6832 16.6511 11.6927C16.6494 11.7022 16.6501 11.712 16.6532 11.7212C16.6996 11.8486 16.7286 11.9817 16.7394 12.1168C16.7394 12.2775 16.9269 14.8043 16.9757 15.19C16.9838 15.2525 16.9994 15.3418 17.0176 15.4581C16.8526 15.5918 16.7232 15.7018 16.7232 15.7018L16.6432 15.4781C16.6432 15.4781 16.2269 14.87 15.9069 14.9981C15.5869 15.1262 15.4588 15.4618 15.3951 15.9581C15.3313 16.4543 15.6351 16.63 15.8588 16.6693C16.0826 16.7087 16.4838 16.3425 16.4838 16.3425C16.5319 16.905 16.1313 17.27 16.1313 17.27C15.4038 17.745 15.1394 17.895 14.7076 17.7181C14.3513 17.5731 14.3432 16.6662 14.3513 16.3525C14.3518 16.3463 14.3501 16.3402 14.3466 16.3352C14.343 16.3301 14.3378 16.3265 14.3318 16.3249C14.3259 16.3234 14.3195 16.324 14.314 16.3266C14.3084 16.3292 14.3039 16.3337 14.3013 16.3393C13.9682 16.9731 14.1063 17.9762 14.5632 18.3268C15.0432 18.695 15.4276 18.4706 16.2276 17.8943C17.0276 17.3181 16.8682 16.2781 16.8682 16.2781L17.1007 16.1368C17.1532 16.7812 17.1301 17.5743 16.7557 18.0431C16.1307 18.8225 15.2038 19.0468 14.7713 18.9806C14.3388 18.9143 13.6526 18.6612 13.9544 16.7931C13.9557 16.789 13.9557 16.7847 13.9544 16.7806L13.9019 16.6968C13.9001 16.6939 13.8975 16.6916 13.8944 16.6901C13.8914 16.6886 13.8879 16.6881 13.8845 16.6885C13.8811 16.6889 13.8779 16.6902 13.8752 16.6923C13.8726 16.6945 13.8706 16.6974 13.8694 16.7006C13.7262 17.0879 13.6419 17.4945 13.6194 17.9068C13.6032 18.5318 13.8219 20.0737 15.5613 19.5981C17.3007 19.1225 17.5319 18.0062 17.5051 17.4943Z" fill="white"/>
<path d="M13.3713 14.3594C13.5244 14.0744 13.5688 12.9444 13.7881 12.6919C13.7881 12.6919 13.7769 13.1294 13.755 13.3719C13.7331 13.6144 13.6563 14.7763 14.6106 14.7763L14.79 17.0263C14.7906 17.0352 14.7936 17.0437 14.7989 17.0509C14.8042 17.0581 14.8114 17.0635 14.8197 17.0667C14.828 17.0699 14.8371 17.0706 14.8458 17.0687C14.8545 17.0669 14.8625 17.0626 14.8688 17.0563C14.9413 16.9869 15.0425 16.8688 15.05 16.7494C15.0606 16.5619 14.9181 14.5332 14.9181 14.5332C14.9181 14.5332 15.1488 14.4019 15.3131 13.9626C15.3131 13.9626 15.4338 14.5994 15.9381 14.5876C16.4425 14.5757 16.58 14.1707 16.61 13.8413C16.64 13.5119 16.3875 12.4807 16.3875 12.4807C16.3875 12.4807 16.7169 12.5251 16.575 12.2726C16.4331 12.0201 16.2569 11.6876 16.1688 11.6894C16.0806 11.6913 15.8444 11.9763 15.8563 12.1738C15.8681 12.3713 16.1225 13.0488 16.1775 13.2707C16.2325 13.4926 16.37 13.8632 16.0813 13.9076C15.7925 13.9519 15.4969 13.6657 15.475 13.2382C15.4531 12.8107 15.4125 12.1407 15.4125 12.1407C15.4125 12.1407 15.2369 11.6657 15.1269 11.6894C15.0169 11.7132 14.9394 11.9982 14.9738 12.2069C15.0081 12.4157 15.1819 13.2726 15.1613 13.5076C15.1543 13.6085 15.1228 13.7062 15.0694 13.7922C15.016 13.8781 14.9424 13.9497 14.855 14.0007L14.7338 12.2507C14.7338 12.2507 14.9419 12.2176 14.8431 11.9107C14.7444 11.6038 14.7213 11.2651 14.5519 11.1763C14.3825 11.0876 14.2725 11.3838 14.2725 11.5926C14.2725 11.8013 14.415 12.3426 14.415 12.3426L14.55 14.0819C14.0706 14.1282 13.8975 13.1444 14.0538 12.8219C14.21 12.4994 14.2994 11.9269 14.1219 11.8476C13.9444 11.7682 13.6806 12.0319 13.5269 12.4051C13.3731 12.7782 13.4175 14.0176 13.0444 14.0301C12.7069 14.0401 12.7375 12.5301 12.7469 12.2438C12.747 12.2383 12.7456 12.2329 12.7428 12.2282C12.7399 12.2234 12.7358 12.2196 12.7309 12.2172C12.7259 12.2148 12.7204 12.2138 12.7149 12.2144C12.7095 12.215 12.7043 12.2172 12.7 12.2207C12.655 12.2588 12.5844 12.3594 12.5175 12.6257C12.4081 13.0632 12.6388 14.2276 12.825 14.5007C13.0113 14.7738 13.2175 14.6451 13.3713 14.3594Z" fill="white"/>
<path d="M14.2151 15.2444C13.9757 15.3156 13.157 15.605 12.7551 16.34C12.7523 16.3446 12.7512 16.3501 12.7519 16.3555C12.7526 16.3608 12.7552 16.3658 12.7591 16.3695C12.7631 16.3733 12.7682 16.3755 12.7736 16.3759C12.779 16.3764 12.7844 16.3749 12.7889 16.3719C13.0126 16.2269 13.6876 15.8037 14.2501 15.6C14.2602 15.5964 14.2689 15.5898 14.275 15.581C14.2812 15.5723 14.2845 15.5619 14.2845 15.5512V15.2944C14.2845 15.286 14.2826 15.2777 14.2788 15.2703C14.275 15.2628 14.2695 15.2564 14.2627 15.2515C14.2559 15.2466 14.248 15.2434 14.2398 15.2421C14.2315 15.2409 14.223 15.2417 14.2151 15.2444ZM13.4376 18.6931C13.2676 18.6931 13.3076 18.9231 13.1176 18.9631C12.9276 19.0031 12.9676 18.5631 12.9776 18.4006C12.9876 18.2381 13.0676 18.0106 13.1076 17.8006C13.1248 17.6633 13.1157 17.5239 13.0807 17.39C13.0789 17.3835 13.0751 17.3776 13.0699 17.3733C13.0648 17.3689 13.0584 17.3662 13.0516 17.3656C13.0449 17.3649 13.0381 17.3663 13.0321 17.3695C13.0262 17.3727 13.0213 17.3777 13.0182 17.3837C12.922 17.5953 12.8452 17.8151 12.7889 18.0406C12.6789 18.4781 12.6089 19.47 13.0589 19.49C13.5089 19.51 13.607 18.6931 13.4376 18.6931ZM34.2189 13.2419C34.3514 13.2019 34.3651 12.77 34.3439 12.3706C34.3226 11.9712 34.1564 11.6725 34.0845 11.6462C34.0126 11.62 33.8714 11.945 33.8714 11.945C33.9729 12.1352 34.0534 12.336 34.1114 12.5437C34.2064 12.8831 34.0857 13.2819 34.2189 13.2419ZM30.5257 14.0437C30.6226 14.0825 30.7095 13.9519 30.7095 13.9519C30.7095 13.9519 31.022 14.655 31.1026 14.6794C31.1026 14.6794 31.1801 14.7619 31.2045 14.5387C31.2289 14.3156 31.1657 13.6637 31.2382 13.5781C31.3107 13.4925 31.3745 13.5587 31.3982 13.5975C31.422 13.6362 31.5539 13.6656 31.5345 13.5006C31.5151 13.3356 31.4176 13.1175 31.2626 13.1806C31.1076 13.2437 31.0251 13.4812 31.0589 13.6806C31.0791 13.8691 31.0839 14.0589 31.0732 14.2481C31.0732 14.2481 30.8551 13.6131 30.7339 13.54C30.6126 13.4669 30.5064 13.4531 30.4964 13.5744C30.4864 13.6956 30.4282 14.005 30.5257 14.0437ZM31.722 14.8825C31.4995 15.0594 30.722 15.685 30.6664 15.8675C30.5982 16.0806 30.7914 15.9925 30.7914 15.9925C30.7914 15.9925 31.8295 15.3712 31.8682 15.1969C31.8837 15.0967 31.8666 14.9941 31.8195 14.9044C31.8155 14.8955 31.8095 14.8877 31.802 14.8816C31.7945 14.8755 31.7857 14.8712 31.7762 14.8691C31.7668 14.867 31.7569 14.8671 31.7475 14.8694C31.7381 14.8717 31.7294 14.8762 31.722 14.8825ZM31.707 16.8281C31.9626 16.7394 31.9251 16.365 31.8764 16.1975C31.8276 16.03 31.6945 15.6831 31.5364 15.8381C31.3782 15.9931 31.4032 16.0612 31.607 16.2756C31.7751 16.4512 31.712 16.7194 31.6851 16.8081C31.6844 16.8111 31.6845 16.8141 31.6854 16.817C31.6862 16.8199 31.6879 16.8226 31.6901 16.8246C31.6924 16.8267 31.6951 16.8281 31.6981 16.8287C31.701 16.8293 31.7041 16.8291 31.707 16.8281ZM27.2945 11.9237C27.3345 12.0962 27.3007 12.3731 27.3057 12.5094C27.3061 12.5173 27.3088 12.5249 27.3134 12.5314C27.3181 12.5378 27.3245 12.5428 27.3319 12.5457C27.3393 12.5486 27.3473 12.5493 27.3551 12.5478C27.3629 12.5462 27.3701 12.5424 27.3757 12.5369C27.4838 12.4248 27.55 12.2789 27.5632 12.1237C27.6051 11.7825 27.3801 11.1969 27.2551 11.1769C27.1301 11.1569 26.9632 11.3075 27.0464 11.5325C27.1295 11.7575 27.2439 11.7075 27.2945 11.9237ZM27.5282 13.1694C27.5282 13.0737 27.5195 12.9937 27.4445 13.0275C27.3695 13.0612 27.4195 13.3237 27.2945 13.3987C27.1695 13.4737 27.1782 12.9906 27.1282 13.1319C27.0782 13.2731 27.1364 13.5906 27.2614 13.6256C27.3864 13.6606 27.4695 13.4319 27.4695 13.4319C27.4695 13.4319 27.6026 13.6031 27.7526 13.5781C27.9026 13.5531 27.8526 12.9737 27.8526 12.9737C27.8526 12.9737 27.7526 12.8987 27.7307 13.0325C27.7089 13.1662 27.7276 13.2987 27.6282 13.3406C27.5289 13.3825 27.5282 13.2656 27.5282 13.1694ZM23.2382 14.8169C23.2157 14.95 23.2382 15.0831 23.1357 15.125C23.0332 15.1669 23.0357 15.05 23.0357 14.9537C23.0357 14.8575 23.027 14.7781 22.952 14.8119C22.877 14.8456 22.927 15.1081 22.802 15.1831C22.677 15.2581 22.6857 14.775 22.6357 14.9169C22.5857 15.0587 22.6439 15.375 22.7689 15.41C22.8939 15.445 22.977 15.2169 22.977 15.2169C22.977 15.2169 23.1101 15.3875 23.2601 15.3625C23.4101 15.3375 23.3601 14.7581 23.3601 14.7581C23.3601 14.7581 23.2607 14.6831 23.2382 14.8169ZM15.4245 11.7144C15.5745 11.7394 15.7076 11.5687 15.7076 11.5687C15.7076 11.5687 15.7907 11.7975 15.9157 11.7625C16.0407 11.7275 16.0989 11.4106 16.0489 11.2687C15.9989 11.1269 16.0082 11.6106 15.8826 11.5356C15.757 11.4606 15.8076 11.1969 15.7326 11.1637C15.6576 11.1306 15.6489 11.21 15.6489 11.3062C15.6489 11.4025 15.6489 11.5187 15.5489 11.4769C15.4489 11.435 15.4689 11.3019 15.4464 11.1687C15.4239 11.0356 15.3214 11.1106 15.3214 11.1106C15.3214 11.1106 15.2745 11.6875 15.4245 11.7144ZM32.5239 19.1725C32.5239 19.1725 32.502 19.1287 32.567 19.0125C32.632 18.8962 32.6764 18.7725 32.5201 18.7069C32.3639 18.6412 32.1089 18.6444 32.167 18.8231C32.2251 19.0019 32.3545 18.9181 32.327 19.0731C32.2995 19.2281 32.2739 19.2262 32.1589 19.3569C32.0439 19.4875 31.9901 19.6406 32.1589 19.6694C32.3276 19.6981 32.6689 19.6037 32.7564 19.4437C32.8439 19.2837 32.7801 19.1137 32.5239 19.1725ZM25.0001 19.4469C25.0832 19.6575 25.447 19.5362 25.6064 19.4469C25.7657 19.3575 26.2314 19.045 26.0232 19.0131C25.8151 18.9812 25.3982 19.2631 25.3001 19.23C25.202 19.1969 25.1407 19.0619 25.1982 18.8969C25.2557 18.7319 25.3576 18.6044 25.2107 18.6044C25.0639 18.6044 24.5595 18.9169 24.6939 19.0131C24.6939 19.0131 24.9745 18.815 25.0001 18.9362C25.0257 19.0575 24.9139 19.2362 25.0001 19.4469ZM19.0914 13.2331C19.0182 13.2012 18.8657 13.4562 18.7826 13.5837C18.6995 13.7112 18.5951 14.2475 18.9501 14.2862C19.2089 14.3137 19.4695 13.935 19.4745 13.8075C19.4795 13.68 19.397 13.6981 19.3145 13.8162C19.232 13.9344 19.132 14.0719 18.977 13.985C18.822 13.8981 18.9545 13.5019 19.0639 13.3787C19.0626 13.3787 19.1645 13.265 19.0914 13.2331ZM18.4795 17.75C18.592 17.75 18.6264 17.545 18.667 17.4425C18.7076 17.34 18.7826 16.7656 18.5776 16.6694C18.3726 16.5731 18.2495 16.7106 18.2426 16.9431C18.2357 17.1756 18.5095 17.12 18.5095 17.12C18.5714 17.5225 18.3664 17.75 18.4795 17.75ZM13.1482 11.4275C13.2389 11.4969 13.232 11.365 13.322 11.3587C13.412 11.3525 13.3845 11.5881 13.3845 11.5881C13.3845 11.6581 13.3332 11.9256 13.3114 12.0412C13.3107 12.0452 13.3113 12.0494 13.3132 12.053C13.3151 12.0566 13.3181 12.0595 13.3217 12.0613C13.3254 12.0631 13.3295 12.0636 13.3335 12.0628C13.3375 12.062 13.3412 12.0599 13.3439 12.0569C13.4907 11.8906 13.5389 11.4656 13.5514 11.3387C13.5651 11.2006 13.517 10.9906 13.322 11.0887C13.127 11.1869 13.0582 11.3587 13.1482 11.4275ZM22.2701 12.6175C22.2761 12.6231 22.2834 12.627 22.2914 12.6289C22.2993 12.6307 22.3077 12.6304 22.3155 12.628C22.3233 12.6256 22.3303 12.6211 22.3359 12.6151C22.3414 12.6091 22.3452 12.6017 22.347 12.5937C22.4237 12.3187 22.4374 12.0298 22.387 11.7487C22.297 11.3112 22.2882 11.2994 22.1895 11.2869C22.0907 11.2744 22.002 11.3369 22.0282 11.4444C22.0545 11.5519 22.3051 12.0087 22.2701 12.6175ZM31.0289 22.4156C30.6439 22.4231 30.0707 22.6194 29.8745 22.6494C29.6782 22.6794 29.437 22.6575 29.4064 22.5137C29.3757 22.37 29.4595 22.2569 29.5276 22.3175C29.5957 22.3781 29.8289 22.4006 29.7464 22.1819C29.6639 21.9631 29.3389 21.8269 29.3389 21.8269C29.3367 21.7318 29.3057 21.6396 29.2501 21.5625C29.1595 21.4487 29.0001 21.4419 29.0001 21.5925C28.9956 21.6718 28.9752 21.7493 28.9402 21.8206C28.9052 21.8919 28.8563 21.9554 28.7964 22.0075C28.6751 22.1206 28.532 22.4531 28.7126 22.5131C28.8932 22.5731 29.0295 22.3469 29.0295 22.3469C29.0295 22.3469 29.1657 22.5344 28.8939 22.7019C28.622 22.8694 27.2139 22.9475 27.2139 22.9475C26.5151 23.1219 22.2376 23.2094 20.317 23.1219C18.4164 23.0362 15.9126 22.0944 15.8601 22.0756C15.897 22.105 17.0732 23.0544 17.7714 23.3581C18.3776 23.6225 20.1407 23.9012 20.1407 23.9012C20.1407 23.9012 23.9364 23.9919 25.3701 23.985C26.8039 23.9781 28.5545 23.8037 28.7282 23.7656C28.902 23.7275 29.2789 23.7812 29.3314 23.8562C29.3453 23.8775 29.3547 23.9014 29.359 23.9264C29.3634 23.9514 29.3627 23.9771 29.3568 24.0018C29.351 24.0265 29.3402 24.0498 29.325 24.0702C29.3099 24.0907 29.2908 24.1078 29.2689 24.1206C29.1632 24.1831 29.012 23.8944 28.967 24.0675C28.922 24.2406 29.0876 24.38 29.2764 24.5431C29.4651 24.7062 29.4426 24.9281 29.6164 24.935C29.7901 24.9419 29.767 24.7844 29.7589 24.6787C29.7507 24.5731 29.8426 24.4825 29.9464 24.4375C30.0501 24.3925 30.0895 24.1506 30.0895 24.0375C30.0895 23.9244 29.9607 23.9319 29.8857 24.0144C29.8684 24.0376 29.8454 24.056 29.8189 24.068C29.7925 24.0799 29.7634 24.0849 29.7345 24.0825C29.7376 23.9279 29.7877 23.7779 29.8782 23.6525C30.0214 23.4794 30.0657 23.63 30.4064 23.675C30.747 23.72 30.7082 23.645 30.882 23.4412C31.0557 23.2375 31.1232 23.4037 31.1232 23.4037C31.1232 23.4037 31.2664 23.9544 31.6289 23.7356C31.9914 23.5169 31.9457 23.1169 31.9007 22.8906C31.8557 22.6644 31.4139 22.4081 31.0289 22.4156ZM29.0426 23.2906C29.0179 23.2906 28.9942 23.2808 28.9768 23.2633C28.9593 23.2459 28.9495 23.2222 28.9495 23.1975C28.9495 23.1726 28.9594 23.1488 28.977 23.1312C28.9945 23.1136 29.0184 23.1037 29.0432 23.1037C29.0681 23.1037 29.092 23.1136 29.1095 23.1312C29.1271 23.1488 29.137 23.1726 29.137 23.1975C29.1369 23.2097 29.1344 23.2219 29.1296 23.2331C29.1248 23.2444 29.1178 23.2546 29.109 23.2632C29.1002 23.2717 29.0898 23.2784 29.0785 23.2829C29.0671 23.2874 29.0549 23.2896 29.0426 23.2894V23.2906ZM29.2451 23.5712C29.2266 23.5714 29.2084 23.566 29.1929 23.5557C29.1774 23.5455 29.1653 23.5309 29.1581 23.5138C29.1509 23.4967 29.1489 23.4778 29.1525 23.4596C29.156 23.4414 29.1649 23.4246 29.178 23.4114C29.1911 23.3982 29.2078 23.3892 29.226 23.3856C29.2442 23.3819 29.2631 23.3837 29.2802 23.3908C29.2974 23.3979 29.3121 23.4099 29.3224 23.4253C29.3327 23.4408 29.3382 23.4589 29.3382 23.4775C29.3379 23.502 29.328 23.5255 29.3106 23.5427C29.2932 23.56 29.2697 23.5698 29.2451 23.57V23.5712ZM29.267 22.9462C29.2486 22.9461 29.2307 22.9405 29.2154 22.9302C29.2002 22.9199 29.1884 22.9053 29.1814 22.8883C29.1745 22.8713 29.1727 22.8526 29.1764 22.8346C29.18 22.8165 29.1889 22.8 29.202 22.787C29.215 22.7741 29.2316 22.7653 29.2497 22.7617C29.2677 22.7582 29.2864 22.7601 29.3034 22.7671C29.3204 22.7742 29.3349 22.7861 29.3451 22.8014C29.3553 22.8167 29.3607 22.8347 29.3607 22.8531C29.3604 22.8777 29.3504 22.9012 29.3328 22.9184C29.3152 22.9356 29.2916 22.9451 29.267 22.945V22.9462ZM29.5901 23.4781C29.5712 23.478 29.5528 23.4722 29.5373 23.4614C29.5218 23.4507 29.5099 23.4355 29.5031 23.4179C29.4964 23.4003 29.4951 23.381 29.4995 23.3627C29.5038 23.3443 29.5137 23.3277 29.5276 23.315C29.518 23.3238 29.5103 23.3345 29.505 23.3465C29.4998 23.3584 29.497 23.3713 29.497 23.3844C29.4971 23.4019 29.5022 23.4191 29.5117 23.4339C29.5212 23.4488 29.5347 23.4606 29.5506 23.468C29.5665 23.4755 29.5843 23.4783 29.6017 23.4761C29.6192 23.4739 29.6356 23.4668 29.6492 23.4557C29.6628 23.4445 29.673 23.4297 29.6785 23.413C29.684 23.3963 29.6847 23.3784 29.6805 23.3613C29.6763 23.3443 29.6673 23.3287 29.6547 23.3166C29.642 23.3044 29.6261 23.296 29.6089 23.2925C29.6337 23.295 29.6566 23.3072 29.6724 23.3266C29.6882 23.3459 29.6957 23.3707 29.6932 23.3956C29.6908 23.4205 29.6785 23.4433 29.6592 23.4592C29.6398 23.475 29.615 23.4825 29.5901 23.48V23.4781ZM29.6214 23.1331C29.6028 23.1331 29.5847 23.1276 29.5693 23.1173C29.5539 23.107 29.5419 23.0924 29.5348 23.0752C29.5277 23.0581 29.5258 23.0393 29.5294 23.0211C29.533 23.0029 29.542 22.9862 29.5551 22.9731C29.5682 22.96 29.5849 22.951 29.6031 22.9474C29.6213 22.9438 29.6401 22.9456 29.6572 22.9527C29.6744 22.9598 29.689 22.9719 29.6993 22.9873C29.7096 23.0027 29.7151 23.0208 29.7151 23.0394C29.7148 23.064 29.7048 23.0875 29.6872 23.1048C29.6697 23.1222 29.646 23.1319 29.6214 23.1319V23.1331ZM30.2601 23.1331C30.2307 23.1331 30.2019 23.1244 30.1775 23.108C30.153 23.0917 30.134 23.0685 30.1227 23.0413C30.1114 23.0141 30.1085 22.9842 30.1142 22.9553C30.12 22.9265 30.1341 22.9 30.1549 22.8792C30.1757 22.8584 30.2022 22.8442 30.2311 22.8385C30.26 22.8327 30.2899 22.8357 30.317 22.8469C30.3442 22.8582 30.3675 22.8773 30.3838 22.9017C30.4001 22.9262 30.4089 22.9549 30.4089 22.9844C30.409 23.0039 30.4052 23.0234 30.3977 23.0415C30.3903 23.0596 30.3793 23.0761 30.3655 23.0899C30.3517 23.1038 30.3353 23.1148 30.3172 23.1223C30.2991 23.1299 30.2797 23.1337 30.2601 23.1337V23.1331ZM31.0989 23.0737C31.0694 23.0739 31.0406 23.0652 31.016 23.0489C30.9914 23.0326 30.9723 23.0094 30.9609 22.9822C30.9496 22.955 30.9466 22.925 30.9523 22.8961C30.958 22.8672 30.9722 22.8406 30.9931 22.8198C31.0139 22.799 31.0405 22.7848 31.0694 22.7791C31.0983 22.7733 31.1283 22.7763 31.1555 22.7877C31.1827 22.799 31.2059 22.8182 31.2222 22.8427C31.2385 22.8673 31.2471 22.8961 31.247 22.9256C31.247 22.9649 31.2314 23.0027 31.2036 23.0306C31.1759 23.0584 31.1382 23.0742 31.0989 23.0744V23.0737Z" fill="white"/>
<path opacity="0.12" d="M32.7938 6.77511C30.1428 4.68941 26.838 3.61136 23.467 3.73261C15.7382 3.99198 9.55759 10.4695 9.64197 18.2026C9.65548 19.5921 9.87215 20.9721 10.2851 22.2989C10.3689 22.572 10.5401 22.81 10.7724 22.9763C11.0047 23.1427 11.2852 23.2281 11.5707 23.2195C27.2663 22.6876 32.0738 11.7114 33.2163 8.17573C33.2972 7.92704 33.3 7.65958 33.2245 7.40923C33.149 7.15887 32.9987 6.9376 32.7938 6.77511Z" fill="white"/>
</g>
<path d="M54 23C53.0293 22.9893 52.32 22.7547 51.872 22.296C51.424 21.8267 51.2 21.1867 51.2 20.376V20.296H51.104C51.0187 20.6693 50.9173 20.984 50.8 21.24C50.6933 21.496 50.5547 21.704 50.384 21.864C50.2133 22.0133 50.0107 22.1253 49.776 22.2C49.5413 22.264 49.264 22.296 48.944 22.296C48.176 22.296 47.6 22.0933 47.216 21.688C46.832 21.272 46.64 20.6907 46.64 19.944C46.64 19.0693 46.88 18.36 47.36 17.816C47.8507 17.2613 48.5067 16.7813 49.328 16.376L51.12 15.48V14.6H53.04V19.736C53.04 20.056 53.1093 20.28 53.248 20.408C53.3973 20.536 53.648 20.6 54 20.6H54.48V22.52L54 23ZM49.472 19.896C50.0907 19.896 50.5173 19.8373 50.752 19.72C50.9973 19.6027 51.12 19.3893 51.12 19.08V17.16L49.936 17.72C49.648 17.8587 49.3973 17.9813 49.184 18.088C48.9813 18.1947 48.8053 18.3067 48.656 18.424C48.5173 18.5307 48.4107 18.6427 48.336 18.76C48.272 18.8773 48.24 19.0107 48.24 19.16C48.24 19.4267 48.3253 19.6187 48.496 19.736C48.6773 19.8427 49.0027 19.896 49.472 19.896ZM51.936 13.32C51.6587 13.32 51.4293 13.2347 51.248 13.064C51.0773 12.8933 50.992 12.6213 50.992 12.248C50.992 11.8747 51.0773 11.6027 51.248 11.432C51.4293 11.2613 51.6587 11.176 51.936 11.176H52.256C52.5333 11.176 52.7573 11.2613 52.928 11.432C53.1093 11.6027 53.2 11.8747 53.2 12.248C53.2 12.6213 53.1093 12.8933 52.928 13.064C52.7573 13.2347 52.5333 13.32 52.256 13.32H51.936ZM49.408 13.32C49.1307 13.32 48.9013 13.2347 48.72 13.064C48.5493 12.8933 48.464 12.6213 48.464 12.248C48.464 11.8747 48.5493 11.6027 48.72 11.432C48.9013 11.2613 49.1307 11.176 49.408 11.176H49.728C50.0053 11.176 50.2293 11.2613 50.4 11.432C50.5813 11.6027 50.672 11.8747 50.672 12.248C50.672 12.6213 50.5813 12.8933 50.4 13.064C50.2293 13.2347 50.0053 13.32 49.728 13.32H49.408ZM54.0044 21.08L54.4844 20.6H54.9644C55.8177 20.6 56.2444 20.2267 56.2444 19.48V17.192H58.0044V19.48C58.0044 20.2267 58.3777 20.6 59.1244 20.6H59.7644V22.52L59.2844 23C58.431 23 57.7804 22.8293 57.3324 22.488C56.895 22.136 56.6017 21.5867 56.4524 20.84H56.3564C56.207 21.5867 55.951 22.136 55.5884 22.488C55.2257 22.8293 54.6977 23 54.0044 23V21.08ZM58.2284 26.44C57.951 26.44 57.7217 26.3547 57.5404 26.184C57.3697 26.0133 57.2844 25.7413 57.2844 25.368C57.2844 24.9947 57.3697 24.7227 57.5404 24.552C57.7217 24.3813 57.951 24.296 58.2284 24.296H58.5484C58.8257 24.296 59.0497 24.3813 59.2204 24.552C59.4017 24.7227 59.4924 24.9947 59.4924 25.368C59.4924 25.7413 59.4017 26.0133 59.2204 26.184C59.0497 26.3547 58.8257 26.44 58.5484 26.44H58.2284ZM55.7004 26.44C55.423 26.44 55.1937 26.3547 55.0124 26.184C54.8417 26.0133 54.7564 25.7413 54.7564 25.368C54.7564 24.9947 54.8417 24.7227 55.0124 24.552C55.1937 24.3813 55.423 24.296 55.7004 24.296H56.0204C56.2977 24.296 56.5217 24.3813 56.6924 24.552C56.8737 24.7227 56.9644 24.9947 56.9644 25.368C56.9644 25.7413 56.8737 26.0133 56.6924 26.184C56.5217 26.3547 56.2977 26.44 56.0204 26.44H55.7004ZM59.2856 21.08L59.7656 20.6H60.2296C60.6136 20.6 60.9283 20.584 61.1736 20.552C61.4296 20.52 61.6323 20.4667 61.7816 20.392C61.9416 20.3067 62.0483 20.2053 62.1016 20.088C62.1656 19.96 62.1976 19.8053 62.1976 19.624C62.1976 19.464 62.1816 19.2613 62.1496 19.016C62.1283 18.76 62.0803 18.4293 62.0056 18.024L61.7336 16.536L63.4776 16.248L63.7176 17.736C63.771 18.024 63.8136 18.344 63.8456 18.696C63.8776 19.048 63.8936 19.3573 63.8936 19.624C63.8936 20.7867 63.6056 21.64 63.0296 22.184C62.4643 22.728 61.531 23 60.2296 23H59.2856V21.08ZM62.0856 26.44C61.8083 26.44 61.579 26.3547 61.3976 26.184C61.227 26.0133 61.1416 25.7413 61.1416 25.368C61.1416 24.9947 61.227 24.7227 61.3976 24.552C61.579 24.3813 61.8083 24.296 62.0856 24.296H62.4056C62.683 24.296 62.907 24.3813 63.0776 24.552C63.259 24.7227 63.3496 24.9947 63.3496 25.368C63.3496 25.7413 63.259 26.0133 63.0776 26.184C62.907 26.3547 62.683 26.44 62.4056 26.44H62.0856ZM64.0556 24.44H64.6956C65.6663 24.44 66.3756 24.2427 66.8236 23.848C67.2823 23.4533 67.5063 22.7973 67.4956 21.88C67.4956 21.6347 67.4796 21.3787 67.4476 21.112C67.4156 20.8347 67.373 20.5413 67.3196 20.232L66.9836 18.104L68.7276 17.832L68.9676 19.32C69.0103 19.5547 69.0423 19.7787 69.0636 19.992C69.0956 20.2053 69.1223 20.408 69.1436 20.6H70.6156V22.52L70.1356 23H69.1436C68.9623 24.184 68.493 25.1173 67.7356 25.8C66.989 26.4933 65.981 26.84 64.7116 26.84H64.0556V24.44ZM70.1294 21.08L70.6094 20.6H72.6894L72.7214 20.52L71.1694 18.616V16.136C71.7027 15.8907 72.2627 15.704 72.8494 15.576C73.4467 15.4373 74.028 15.368 74.5934 15.368C75.8307 15.368 76.7374 15.5867 77.3134 16.024C77.8894 16.4613 78.1774 17.1493 78.1774 18.088C78.1774 18.376 78.1507 18.632 78.0974 18.856C78.044 19.0693 77.9587 19.272 77.8414 19.464C77.7347 19.6453 77.5907 19.8213 77.4094 19.992C77.2387 20.1627 77.0254 20.3493 76.7694 20.552L76.7854 20.6H78.7374V22.52L78.2574 23H78.0974C77.5214 23 76.924 22.936 76.3054 22.808C75.6974 22.6693 75.148 22.4453 74.6574 22.136C74.1667 22.4453 73.6494 22.6693 73.1054 22.808C72.5614 22.936 72.0014 23 71.4254 23H70.1294V21.08ZM72.7054 18.072L74.7854 20.52L75.7614 19.72C75.9107 19.592 76.0387 19.4853 76.1454 19.4C76.252 19.3147 76.3374 19.2347 76.4014 19.16C76.4654 19.0747 76.508 18.9947 76.5294 18.92C76.5614 18.8347 76.5774 18.7333 76.5774 18.616C76.5774 18.3067 76.428 18.088 76.1294 17.96C75.8414 17.832 75.3294 17.768 74.5934 17.768C74.2627 17.768 73.9267 17.7893 73.5854 17.832C73.244 17.8747 72.9507 17.9227 72.7054 17.976V18.072ZM78.2544 21.08L78.7344 20.6H79.4384C79.8437 20.6 80.1104 20.5253 80.2384 20.376C80.377 20.216 80.4464 19.9707 80.4464 19.64V11.16H82.3664V19.64C82.3664 20.7813 82.1424 21.624 81.6944 22.168C81.257 22.712 80.505 22.9893 79.4384 23H78.2544V21.08ZM84.2881 11.16H86.2081V23H84.2881V11.16Z" fill="#454545"/>
<defs>
<clipPath id="clip0_3_2958">
<rect width="32" height="32" fill="white" transform="translate(8 2)"/>
</clipPath>
</defs>
</svg>
