<svg width="110" height="36" viewBox="0 0 110 36" fill="none" xmlns="http://www.w3.org/2000/svg">
<g clip-path="url(#clip0_3_2998)">
<mask id="mask0_3_2998" style="mask-type:luminance" maskUnits="userSpaceOnUse" x="8" y="2" width="32" height="32">
<path d="M40 2H8V34H40V2Z" fill="white"/>
</mask>
<g mask="url(#mask0_3_2998)">
<path d="M24.0002 34C32.8368 34 40.0002 26.8366 40.0002 18C40.0002 9.16344 32.8368 2 24.0002 2C15.1637 2 8.00024 9.16344 8.00024 18C8.00024 26.8366 15.1637 34 24.0002 34Z" fill="#F0F0F0"/>
<path d="M11.3076 8.25898C10.0508 9.89417 9.10308 11.7789 8.55127 13.8263H16.8749L11.3076 8.25898ZM39.4489 13.8263C38.8971 11.779 37.9493 9.89427 36.6926 8.25908L31.1254 13.8263H39.4489ZM8.55127 22.1742C9.10315 24.2215 10.0508 26.1062 11.3076 27.7413L16.8747 22.1742H8.55127ZM33.7412 5.30765C32.106 4.05083 30.2214 3.10314 28.1739 2.55127V10.8748L33.7412 5.30765ZM14.259 30.6925C15.8942 31.9494 17.7789 32.897 19.8263 33.4489V25.1254L14.259 30.6925ZM19.8262 2.55127C17.7788 3.10314 15.8941 4.05083 14.259 5.30758L19.8262 10.8748V2.55127ZM28.1739 33.4489C30.2213 32.897 32.106 31.9494 33.7411 30.6926L28.1739 25.1254V33.4489ZM31.1254 22.1742L36.6926 27.7414C37.9493 26.1062 38.8971 24.2215 39.4489 22.1742H31.1254Z" fill="#0052B4"/>
<path d="M39.8649 15.913H26.0873L26.0872 2.13544C25.404 2.0465 24.7076 2 24.0002 2C23.2928 2 22.5964 2.0465 21.9133 2.13544V15.913L8.13568 15.913C8.04674 16.5962 8.00024 17.2927 8.00024 18C8.00024 18.7074 8.04674 19.4038 8.13568 20.087H21.9132L21.9132 33.8646C22.5964 33.9535 23.2928 34 24.0002 34C24.7076 34 25.404 33.9536 26.0872 33.8646V20.087L39.8649 20.087C39.9537 19.4038 40.0002 18.7074 40.0002 18C40.0002 17.2927 39.9537 16.5962 39.8649 15.913Z" fill="#D80027"/>
<path d="M28.1739 22.174L35.3136 29.3138C35.642 28.9856 35.9552 28.6424 36.2541 28.2866L30.1415 22.174L28.1739 22.174ZM19.8261 22.174L12.6863 29.3136C13.0145 29.642 13.3577 29.9553 13.7135 30.2542L19.8261 24.1414V22.174ZM19.8261 13.8261L12.6864 6.68619C12.358 7.01443 12.0447 7.35762 11.7458 7.71337L17.8585 13.826L19.8261 13.8261ZM28.1739 13.8262L35.3137 6.68629C34.9855 6.35791 34.6423 6.04467 34.2865 5.74585L28.1739 11.8585V13.8262Z" fill="#D80027"/>
<path opacity="0.25" d="M34.1483 7.53241C36.4831 11.5886 31.7109 16.1471 25.5842 19.6737C19.4574 23.2004 12.0733 24.8827 10.7389 21.1747C9.15411 16.7711 11.1912 9.12132 17.318 5.59464C23.4447 2.06796 31.8135 3.47628 34.1483 7.53241Z" fill="white"/>
</g>
</g>
<path d="M47.232 23V11.832H54.832V13.992H49.664V16.28H54.096V18.424H49.664V20.84H54.832V23H47.232ZM56.8228 23V14.6H59.1908V16.024H59.2868C59.4361 15.5867 59.6974 15.208 60.0708 14.888C60.4441 14.568 60.9614 14.408 61.6228 14.408C62.4868 14.408 63.1374 14.696 63.5748 15.272C64.0228 15.848 64.2468 16.6693 64.2468 17.736V23H61.8788V17.928C61.8788 17.384 61.7934 16.984 61.6228 16.728C61.4521 16.4613 61.1481 16.328 60.7108 16.328C60.5188 16.328 60.3321 16.3547 60.1508 16.408C59.9694 16.4507 59.8041 16.5253 59.6548 16.632C59.5161 16.7387 59.4041 16.872 59.3188 17.032C59.2334 17.1813 59.1908 17.3573 59.1908 17.56V23H56.8228ZM74.13 23.608C74.13 24.056 74.05 24.4507 73.89 24.792C73.7407 25.1333 73.49 25.4213 73.138 25.656C72.786 25.9013 72.3167 26.0827 71.73 26.2C71.154 26.328 70.4393 26.392 69.586 26.392C68.8607 26.392 68.242 26.344 67.73 26.248C67.2287 26.1627 66.818 26.0347 66.498 25.864C66.1887 25.704 65.9593 25.5013 65.81 25.256C65.6713 25.0213 65.602 24.7493 65.602 24.44C65.602 23.9707 65.7407 23.6027 66.018 23.336C66.2953 23.0693 66.6793 22.904 67.17 22.84V22.664C66.7647 22.5893 66.4607 22.4187 66.258 22.152C66.0553 21.8747 65.954 21.5547 65.954 21.192C65.954 20.968 65.9967 20.776 66.082 20.616C66.178 20.4453 66.2953 20.3013 66.434 20.184C66.5833 20.056 66.754 19.9547 66.946 19.88C67.138 19.8053 67.33 19.7467 67.522 19.704V19.64C67.01 19.4053 66.6313 19.0853 66.386 18.68C66.1407 18.264 66.018 17.784 66.018 17.24C66.018 16.3867 66.3113 15.704 66.898 15.192C67.4953 14.6693 68.402 14.408 69.618 14.408C70.1727 14.408 70.6473 14.4613 71.042 14.568V14.248C71.042 13.8 71.1487 13.48 71.362 13.288C71.586 13.0853 71.9007 12.984 72.306 12.984H73.634V14.744H71.778V14.84C72.2687 15.0747 72.6313 15.4 72.866 15.816C73.1007 16.2213 73.218 16.696 73.218 17.24C73.218 18.0827 72.9193 18.76 72.322 19.272C71.7353 19.7733 70.834 20.024 69.618 20.024C69.074 20.024 68.578 19.9653 68.13 19.848C67.8847 20.008 67.762 20.232 67.762 20.52C67.762 20.7227 67.8367 20.8827 67.986 21C68.146 21.1067 68.4073 21.16 68.77 21.16H71.202C72.226 21.16 72.9673 21.3733 73.426 21.8C73.8953 22.2267 74.13 22.8293 74.13 23.608ZM71.906 23.928C71.906 23.6827 71.81 23.496 71.618 23.368C71.426 23.24 71.09 23.176 70.61 23.176H67.73C67.6233 23.2827 67.5433 23.4 67.49 23.528C67.4473 23.6667 67.426 23.8 67.426 23.928C67.426 24.2373 67.5593 24.4613 67.826 24.6C68.0927 24.7493 68.546 24.824 69.186 24.824H70.146C70.786 24.824 71.2393 24.7493 71.506 24.6C71.7727 24.4613 71.906 24.2373 71.906 23.928ZM69.618 18.472C70.0873 18.472 70.434 18.376 70.658 18.184C70.8927 17.9813 71.01 17.6933 71.01 17.32V17.128C71.01 16.7547 70.8927 16.472 70.658 16.28C70.434 16.0773 70.0873 15.976 69.618 15.976C69.1487 15.976 68.7967 16.0773 68.562 16.28C68.338 16.472 68.226 16.7547 68.226 17.128V17.32C68.226 17.6933 68.338 17.9813 68.562 18.184C68.7967 18.376 69.1487 18.472 69.618 18.472ZM77.5341 23C76.7235 23 76.1261 22.8027 75.7421 22.408C75.3688 22.0133 75.1821 21.4427 75.1821 20.696V11.16H77.5501V21.16H78.6061V23H77.5341ZM81.2099 13.704C80.7299 13.704 80.3779 13.5973 80.1539 13.384C79.9405 13.16 79.8339 12.8773 79.8339 12.536V12.184C79.8339 11.8427 79.9405 11.5653 80.1539 11.352C80.3779 11.128 80.7299 11.016 81.2099 11.016C81.6899 11.016 82.0365 11.128 82.2499 11.352C82.4739 11.5653 82.5859 11.8427 82.5859 12.184V12.536C82.5859 12.8773 82.4739 13.16 82.2499 13.384C82.0365 13.5973 81.6899 13.704 81.2099 13.704ZM80.0259 14.6H82.3939V23H80.0259V14.6ZM87.452 23.192C86.6413 23.192 85.9587 23.064 85.404 22.808C84.8493 22.5413 84.3533 22.168 83.916 21.688L85.308 20.28C85.6067 20.6107 85.9373 20.872 86.3 21.064C86.6627 21.256 87.0733 21.352 87.532 21.352C88.0013 21.352 88.3267 21.2827 88.508 21.144C88.6893 20.9947 88.78 20.7973 88.78 20.552C88.78 20.1573 88.4973 19.9227 87.932 19.848L87.02 19.736C85.132 19.5013 84.188 18.6373 84.188 17.144C84.188 16.7387 84.2627 16.3707 84.412 16.04C84.572 15.6987 84.7907 15.4107 85.068 15.176C85.356 14.9307 85.6973 14.744 86.092 14.616C86.4973 14.4773 86.9507 14.408 87.452 14.408C87.8893 14.408 88.2733 14.44 88.604 14.504C88.9453 14.5573 89.244 14.6427 89.5 14.76C89.7667 14.8667 90.0067 15.0053 90.22 15.176C90.444 15.336 90.6627 15.5173 90.876 15.72L89.516 17.112C89.2493 16.8453 88.9453 16.6373 88.604 16.488C88.2733 16.328 87.932 16.248 87.58 16.248C87.1747 16.248 86.8867 16.312 86.716 16.44C86.5453 16.568 86.46 16.7387 86.46 16.952C86.46 17.176 86.5187 17.352 86.636 17.48C86.764 17.5973 86.9987 17.6827 87.34 17.736L88.284 17.864C90.1293 18.1093 91.052 18.952 91.052 20.392C91.052 20.7973 90.9667 21.1707 90.796 21.512C90.6253 21.8533 90.38 22.152 90.06 22.408C89.7507 22.6533 89.372 22.8453 88.924 22.984C88.4867 23.1227 87.996 23.192 87.452 23.192ZM92.6665 11.16H95.0345V16.024H95.1305C95.2798 15.5867 95.5412 15.208 95.9145 14.888C96.2878 14.568 96.8052 14.408 97.4665 14.408C98.3305 14.408 98.9812 14.696 99.4185 15.272C99.8665 15.848 100.091 16.6693 100.091 17.736V23H97.7225V17.928C97.7225 17.384 97.6372 16.984 97.4665 16.728C97.2958 16.4613 96.9918 16.328 96.5545 16.328C96.3625 16.328 96.1758 16.3547 95.9945 16.408C95.8132 16.4507 95.6478 16.5253 95.4985 16.632C95.3598 16.7387 95.2478 16.872 95.1625 17.032C95.0772 17.1813 95.0345 17.3573 95.0345 17.56V23H92.6665V11.16Z" fill="#454545"/>
<defs>
<clipPath id="clip0_3_2998">
<rect width="32" height="32" fill="white" transform="translate(8 2)"/>
</clipPath>
</defs>
</svg>
