<svg width="24" height="24" viewBox="0 0 24 24" fill="none" xmlns="http://www.w3.org/2000/svg">
<path d="M16 22.75H3C2.04 22.75 1.25 21.96 1.25 21V8C1.25 3.58 3.58 1.25 8 1.25H16C20.42 1.25 22.75 3.58 22.75 8V16C22.75 20.42 20.42 22.75 16 22.75ZM8 2.75C4.42 2.75 2.75 4.42 2.75 8V21C2.75 21.14 2.86 21.25 3 21.25H16C19.58 21.25 21.25 19.58 21.25 16V8C21.25 4.42 19.58 2.75 16 2.75H8Z" fill="#A7ACB2"/>
<path d="M7.95365 17.7498C7.48365 17.7498 7.05365 17.5798 6.73365 17.2698C6.35365 16.8898 6.18363 16.3498 6.27363 15.7698L6.55363 13.7898C6.61363 13.3598 6.88364 12.8098 7.19364 12.4998L12.3836 7.30981C14.1636 5.52981 15.7136 6.32981 16.6936 7.30981C17.4636 8.07981 17.8137 8.88981 17.7337 9.69981C17.6737 10.3598 17.3236 10.9798 16.6936 11.6198L11.5036 16.8098C11.1936 17.1198 10.6536 17.3898 10.2136 17.4598L8.23365 17.7398C8.14365 17.7398 8.04365 17.7498 7.95365 17.7498ZM14.5336 7.74981C14.1636 7.74981 13.8337 7.98981 13.4537 8.35981L8.26365 13.5498C8.18365 13.6298 8.06365 13.8798 8.04365 13.9898L7.76365 15.9698C7.75365 16.0698 7.76363 16.1598 7.80363 16.1998C7.84363 16.2398 7.93364 16.2498 8.03364 16.2398L10.0137 15.9598C10.1337 15.9398 10.3737 15.8198 10.4537 15.7398L15.6437 10.5498C16.0237 10.1698 16.2236 9.83981 16.2536 9.53981C16.2836 9.19981 16.0837 8.79981 15.6437 8.35981C15.2037 7.93981 14.8536 7.74981 14.5336 7.74981Z" fill="#A7ACB2"/>
<path d="M15.4193 12.5797C15.3493 12.5797 15.2793 12.5697 15.2193 12.5497C13.4093 12.0397 11.9593 10.5997 11.4493 8.77972C11.3393 8.37972 11.5693 7.96972 11.9693 7.84972C12.3693 7.73972 12.7793 7.96972 12.8893 8.36972C13.2593 9.67972 14.3093 10.7297 15.6193 11.0997C16.0193 11.2097 16.2493 11.6297 16.1393 12.0297C16.0493 12.3597 15.7493 12.5797 15.4193 12.5797Z" fill="#A7ACB2"/>
</svg>
