<svg width="40" height="40" viewBox="0 0 40 40" fill="none" xmlns="http://www.w3.org/2000/svg">
<path d="M0 20C0 8.95431 8.95431 0 20 0C31.0457 0 40 8.95431 40 20C40 31.0457 31.0457 40 20 40C8.95431 40 0 31.0457 0 20Z" fill="#22C55E" fill-opacity="0.1"/>
<g clip-path="url(#clip0_3_5259)">
<path d="M23.3333 24.9999C23.7754 24.9999 24.1993 25.1755 24.5118 25.4881C24.8244 25.8006 25 26.2246 25 26.6666C25 26.2246 25.1756 25.8006 25.4882 25.4881C25.8007 25.1755 26.2246 24.9999 26.6667 24.9999C26.2246 24.9999 25.8007 24.8243 25.4882 24.5118C25.1756 24.1992 25 23.7753 25 23.3333C25 23.7753 24.8244 24.1992 24.5118 24.5118C24.1993 24.8243 23.7754 24.9999 23.3333 24.9999ZM23.3333 14.9999C23.7754 14.9999 24.1993 15.1755 24.5118 15.4881C24.8244 15.8006 25 16.2246 25 16.6666C25 16.2246 25.1756 15.8006 25.4882 15.4881C25.8007 15.1755 26.2246 14.9999 26.6667 14.9999C26.2246 14.9999 25.8007 14.8243 25.4882 14.5118C25.1756 14.1992 25 13.7753 25 13.3333C25 13.7753 24.8244 14.1992 24.5118 14.5118C24.1993 14.8243 23.7754 14.9999 23.3333 14.9999ZM17.5 24.9999C17.5 23.6738 18.0268 22.4021 18.9645 21.4644C19.9021 20.5267 21.1739 19.9999 22.5 19.9999C21.1739 19.9999 19.9021 19.4731 18.9645 18.5355C18.0268 17.5978 17.5 16.326 17.5 14.9999C17.5 16.326 16.9732 17.5978 16.0355 18.5355C15.0979 19.4731 13.8261 19.9999 12.5 19.9999C13.8261 19.9999 15.0979 20.5267 16.0355 21.4644C16.9732 22.4021 17.5 23.6738 17.5 24.9999Z" stroke="#22C55E" stroke-width="1.5" stroke-linecap="round" stroke-linejoin="round"/>
</g>
<defs>
<clipPath id="clip0_3_5259">
<rect width="20" height="20" fill="white" transform="translate(10 10)"/>
</clipPath>
</defs>
</svg>
