<svg width="152" height="153" viewBox="0 0 152 153" fill="none" xmlns="http://www.w3.org/2000/svg">
<circle cx="76" cy="76.5" r="76" fill="#FFEFE6"/>
<circle cx="76.4282" cy="76.9268" r="66.5337" stroke="#FF8033"/>
<path d="M98.9933 45.7571V113.967C98.9933 115.318 98.4566 116.614 97.5014 117.569C96.5461 118.525 95.2504 119.062 93.8992 119.063H61.7698C60.4186 119.062 59.1229 118.525 58.1677 117.569C57.2124 116.614 56.6758 115.318 56.6758 113.967V45.7571C56.6758 44.4059 57.2124 43.11 58.1677 42.1544C59.1229 41.1988 60.4186 40.6616 61.7698 40.6611H93.8992C95.2504 40.6616 96.5461 41.1988 97.5014 42.1544C98.4566 43.11 98.9933 44.4059 98.9933 45.7571Z" fill="#DEE1EC"/>
<path d="M98.9933 45.7571V113.967C98.9933 115.318 98.4566 116.614 97.5014 117.569C96.5461 118.525 95.2504 119.062 93.8992 119.063H61.7698C60.4186 119.062 59.1229 118.525 58.1677 117.569C57.2124 116.614 56.6758 115.318 56.6758 113.967V45.7571C56.6758 44.4059 57.2124 43.11 58.1677 42.1544C59.1229 41.1988 60.4186 40.6616 61.7698 40.6611H93.8992C95.2504 40.6616 96.5461 41.1988 97.5014 42.1544C98.4566 43.11 98.9933 44.4059 98.9933 45.7571Z" fill="#DEE1EC"/>
<path d="M95.8251 46.6878V113.278C95.8251 113.894 95.5805 114.484 95.1451 114.92C94.7097 115.355 94.1192 115.6 93.5035 115.6H62.1615C61.5457 115.6 60.9552 115.355 60.5198 114.92C60.0844 114.484 59.8398 113.894 59.8398 113.278V46.6878C59.8398 46.0721 60.0844 45.4816 60.5198 45.0462C60.9552 44.6108 61.5457 44.3662 62.1615 44.3662H70.0666C70.4038 44.3666 70.7319 44.4755 71.0023 44.6769C71.2727 44.8783 71.4711 45.1615 71.5679 45.4845C71.6646 45.8074 71.863 46.0905 72.1335 46.2916C72.404 46.4928 72.7322 46.6012 73.0693 46.6008H82.8201C83.1572 46.6012 83.4854 46.4928 83.7559 46.2916C84.0264 46.0905 84.2248 45.8074 84.3214 45.4845C84.418 45.1613 84.6163 44.878 84.8868 44.6765C85.1572 44.4751 85.4855 44.3662 85.8227 44.3662H93.4977C93.803 44.3655 94.1055 44.4249 94.3879 44.5413C94.6702 44.6576 94.9269 44.8285 95.1431 45.0442C95.3593 45.2598 95.5308 45.516 95.6478 45.7981C95.7649 46.0801 95.8251 46.3825 95.8251 46.6878Z" fill="#F5F5F5"/>
<path d="M77.8362 78.7749C84.6147 78.7749 90.1099 73.2798 90.1099 66.5012C90.1099 59.7227 84.6147 54.2275 77.8362 54.2275C71.0576 54.2275 65.5625 59.7227 65.5625 66.5012C65.5625 73.2798 71.0576 78.7749 77.8362 78.7749Z" fill="#F5F5F5"/>
<path d="M77.8362 78.7749C84.6147 78.7749 90.1099 73.2798 90.1099 66.5012C90.1099 59.7227 84.6147 54.2275 77.8362 54.2275C71.0576 54.2275 65.5625 59.7227 65.5625 66.5012C65.5625 73.2798 71.0576 78.7749 77.8362 78.7749Z" fill="#F5F5F5"/>
<path d="M77.8346 79.3552C75.2923 79.3552 72.8071 78.6013 70.6932 77.1888C68.5794 75.7764 66.9318 73.7689 65.9589 71.4201C64.986 69.0713 64.7315 66.4868 65.2275 63.9934C65.7234 61.4999 66.9477 59.2095 68.7453 57.4119C70.543 55.6142 72.8334 54.3899 75.3269 53.894C77.8203 53.398 80.4048 53.6525 82.7536 54.6254C85.1024 55.5983 87.1099 57.2459 88.5223 59.3597C89.9348 61.4736 90.6886 63.9588 90.6886 66.5011C90.6845 69.9089 89.329 73.176 86.9192 75.5858C84.5095 77.9955 81.2424 79.3511 77.8346 79.3552ZM77.8346 54.8078C75.5218 54.8078 73.2611 55.4936 71.3381 56.7785C69.4152 58.0633 67.9164 59.8896 67.0314 62.0262C66.1464 64.1629 65.9148 66.514 66.366 68.7823C66.8172 71.0506 67.9308 73.1341 69.5662 74.7695C71.2015 76.4048 73.285 77.5185 75.5533 77.9697C77.8216 78.4208 80.1727 78.1893 82.3094 77.3042C84.446 76.4192 86.2723 74.9204 87.5572 72.9975C88.842 71.0745 89.5278 68.8138 89.5278 66.5011C89.5242 63.4009 88.2911 60.4288 86.099 58.2366C83.9069 56.0445 80.9347 54.8114 77.8346 54.8078Z" fill="#5E6175"/>
<path d="M79.3421 69.7552H76.3279C76.3282 68.7348 76.5709 67.7291 77.0361 66.8209C77.5013 65.9127 78.1756 65.128 79.0035 64.5316C79.2826 64.3313 79.5055 64.0628 79.6508 63.7517C79.7962 63.4406 79.8592 63.0973 79.8338 62.7548C79.8084 62.4123 79.6955 62.0821 79.5057 61.7959C79.316 61.5096 79.056 61.2769 78.7504 61.12C78.4449 60.9632 78.1043 60.8875 77.7611 60.9001C77.4179 60.9128 77.0837 61.0134 76.7906 61.1924C76.4975 61.3713 76.2553 61.6226 76.0872 61.922C75.9191 62.2215 75.8308 62.5591 75.8307 62.9026H72.8164C72.8166 62.0428 73.0377 61.1976 73.4584 60.4479C73.8791 59.6982 74.4854 59.0691 75.2191 58.621C75.9527 58.1728 76.7892 57.9207 77.6484 57.8887C78.5075 57.8568 79.3604 58.046 80.1253 58.4384C80.8903 58.8307 81.5416 59.413 82.0169 60.1294C82.4922 60.8458 82.7755 61.6722 82.8396 62.5295C82.9037 63.3869 82.7465 64.2463 82.3831 65.0254C82.0197 65.8045 81.4622 66.4772 80.7641 66.9789C80.3239 67.2957 79.9653 67.7127 79.718 68.1955C79.4708 68.6782 79.3419 69.2128 79.3421 69.7552Z" fill="#E1830E"/>
<path d="M79.3247 72.0884H76.2969V75.1162H79.3247V72.0884Z" fill="#E1830E"/>
<path style="mix-blend-mode:multiply" d="M98.9933 83.3271H56.6758V110.531H98.9933V83.3271Z" fill="url(#paint0_linear_234_8666)"/>
<path d="M107.405 45.6819C106.977 45.6802 106.557 45.5637 106.19 45.3444C105.823 45.1252 105.521 44.8114 105.317 44.4357C105.112 44.06 105.013 43.6363 105.028 43.2089C105.043 42.7815 105.173 42.366 105.404 42.006C106.553 40.228 109.295 40.7387 109.738 42.8031C109.811 43.1504 109.806 43.5097 109.722 43.8547C109.639 44.1998 109.48 44.5219 109.256 44.7977C109.033 45.0735 108.751 45.2959 108.43 45.4489C108.11 45.6018 107.759 45.6814 107.405 45.6819ZM107.405 42.0717C107.233 42.0719 107.063 42.1081 106.906 42.1781C106.75 42.2481 106.609 42.3502 106.495 42.4779C106.38 42.6056 106.293 42.7559 106.241 42.9192C106.188 43.0825 106.17 43.2551 106.188 43.4258C106.206 43.5964 106.26 43.7614 106.346 43.9099C106.432 44.0585 106.548 44.1873 106.687 44.288C106.826 44.3887 106.985 44.4591 107.153 44.4946C107.32 44.5301 107.494 44.5299 107.662 44.494C107.958 44.4307 108.22 44.2601 108.397 44.0151C108.575 43.77 108.655 43.4679 108.624 43.167C108.592 42.8661 108.449 42.5877 108.224 42.3855C107.999 42.1832 107.707 42.0714 107.405 42.0717ZM98.5707 36.7533C98.25 36.7535 97.9357 36.6628 97.6644 36.4919C97.393 36.3209 97.1755 36.0766 97.0372 35.7872C96.8989 35.4978 96.8453 35.1752 96.8827 34.8566C96.9201 34.5381 97.0469 34.2366 97.2484 33.9871C97.45 33.7376 97.7181 33.5503 98.0217 33.4468C98.3253 33.3433 98.652 33.3279 98.964 33.4023C99.276 33.4768 99.5605 33.638 99.7847 33.8674C100.009 34.0968 100.163 34.385 100.231 34.6986C100.283 34.9462 100.28 35.2024 100.221 35.4485C100.162 35.6946 100.049 35.9245 99.8902 36.1214C99.7311 36.3183 99.5301 36.4772 99.3019 36.5865C99.0736 36.6958 98.8238 36.7528 98.5707 36.7533ZM98.5707 34.5168C98.4954 34.5169 98.421 34.5329 98.3523 34.5636C98.2835 34.5944 98.222 34.6392 98.1717 34.6952C98.1214 34.7512 98.0834 34.8172 98.0602 34.8888C98.0369 34.9604 98.029 35.0361 98.0369 35.111C98.0448 35.1859 98.0684 35.2583 98.106 35.3235C98.1436 35.3887 98.1946 35.4453 98.2555 35.4896C98.3164 35.5339 98.3859 35.5649 98.4595 35.5806C98.5331 35.5963 98.6093 35.5964 98.6829 35.5809C98.822 35.55 98.9435 35.466 99.0215 35.3468C99.074 35.2656 99.1037 35.1718 99.1074 35.0752C99.1111 34.9786 99.0887 34.8828 99.0426 34.7979C98.9964 34.713 98.9283 34.6421 98.8452 34.5926C98.7622 34.5431 98.6674 34.5169 98.5707 34.5168Z" fill="#5E6175"/>
<path d="M48.1211 108.876L45.2852 111.712L46.106 112.533L48.9419 109.697L48.1211 108.876Z" fill="#5E6175"/>
<path d="M52.4186 111.388H51.2578V115.398H52.4186V111.388Z" fill="#5E6175"/>
<path d="M46.3192 105.642H42.3086V106.802H46.3192V105.642Z" fill="#5E6175"/>
<path d="M111.118 100.49H109.957V99.3291H111.118V100.49ZM111.118 97.3944H109.957V96.2336H111.118V97.3944ZM111.118 94.2989H109.957V93.1381H111.118V94.2989ZM111.118 91.2034H109.957C109.966 90.8336 109.955 90.4636 109.926 90.0948L111.087 89.9923C111.124 90.4682 111.118 90.7681 111.118 91.2034ZM109.57 88.3381C109.457 87.9962 109.32 87.6627 109.16 87.3398L110.199 86.8233C110.383 87.1945 110.541 87.5778 110.673 87.9706L109.57 88.3381ZM108.179 85.8347C107.949 85.5605 107.701 85.302 107.436 85.0608L108.21 84.2037C108.516 84.4821 108.801 84.7814 109.065 85.0995L108.179 85.8347ZM105.98 84.0025C105.665 83.8268 105.338 83.673 105.003 83.542L105.422 82.4606C105.808 82.6106 106.183 82.787 106.544 82.9887L105.98 84.0025ZM103.271 83.0913C102.915 83.0425 102.555 83.0179 102.195 83.0177V81.8569C102.609 81.8571 103.022 81.8855 103.432 81.9421L103.271 83.0913Z" fill="#A9AFC4"/>
<path d="M93.9015 119.643H61.7721C60.2674 119.641 58.825 119.042 57.7612 117.978C56.6975 116.914 56.0992 115.472 56.0977 113.967V45.7574C56.0992 44.2528 56.6975 42.8101 57.7612 41.746C58.825 40.6819 60.2674 40.0831 61.7721 40.0811H93.9015C95.4062 40.0831 96.8486 40.6819 97.9124 41.746C98.9762 42.8101 99.5744 44.2528 99.576 45.7574V113.967C99.5744 115.472 98.9762 116.914 97.9124 117.978C96.8486 119.042 95.4062 119.641 93.9015 119.643ZM61.7721 41.2419C60.5752 41.2434 59.4277 41.7197 58.5815 42.5663C57.7353 43.4128 57.2595 44.5605 57.2585 45.7574V113.967C57.2595 115.164 57.7353 116.312 58.5815 117.158C59.4277 118.005 60.5752 118.481 61.7721 118.482H93.9015C95.0985 118.481 96.2459 118.005 97.0921 117.158C97.9383 116.312 98.4141 115.164 98.4151 113.967V45.7574C98.4141 44.5605 97.9383 43.4128 97.0921 42.5663C96.2459 41.7197 95.0985 41.2434 93.9015 41.2419H61.7721Z" fill="#5E6175"/>
<path d="M100.484 86.4224H55.1371C52.218 86.4224 49.8516 88.7888 49.8516 91.7079V102.148C49.8516 105.067 52.218 107.433 55.1371 107.433H100.484C103.403 107.433 105.77 105.067 105.77 102.148V91.7079C105.77 88.7888 103.403 86.4224 100.484 86.4224Z" fill="#F5F5F5"/>
<path d="M100.484 86.4224H55.1371C52.218 86.4224 49.8516 88.7888 49.8516 91.7079V102.148C49.8516 105.067 52.218 107.433 55.1371 107.433H100.484C103.403 107.433 105.77 105.067 105.77 102.148V91.7079C105.77 88.7888 103.403 86.4224 100.484 86.4224Z" stroke="#E1830E" stroke-width="11" stroke-miterlimit="10"/>
<path d="M64.1731 91.2417H61.2227V102.616H64.1731V91.2417Z" fill="#5E6175"/>
<path d="M66.8854 92.8076L57.0352 98.4946L58.5104 101.05L68.3606 95.3627L66.8854 92.8076Z" fill="#5E6175"/>
<path d="M58.5104 92.8086L57.0352 95.3638L66.8854 101.051L68.3606 98.4957L58.5104 92.8086Z" fill="#5E6175"/>
<path d="M79.2863 91.2417H76.3359V102.616H79.2863V91.2417Z" fill="#5E6175"/>
<path d="M81.9987 92.8066L72.1484 98.4937L73.6236 101.049L83.4739 95.3618L81.9987 92.8066Z" fill="#5E6175"/>
<path d="M73.6236 92.8077L72.1484 95.3628L81.9986 101.05L83.4739 98.4947L73.6236 92.8077Z" fill="#5E6175"/>
<path d="M94.3957 91.2417H91.4453V102.616H94.3957V91.2417Z" fill="#5E6175"/>
<path d="M97.108 92.8066L87.2578 98.4937L88.733 101.049L98.5832 95.3618L97.108 92.8066Z" fill="#5E6175"/>
<path d="M88.733 92.8086L87.2578 95.3638L97.108 101.051L98.5832 98.4957L88.733 92.8086Z" fill="#5E6175"/>
<path d="M41.4609 75.1141C42.9597 75.1141 44.3972 75.7095 45.457 76.7693C46.5168 77.8291 47.1122 79.2666 47.1122 80.7654C47.1127 79.2667 47.7082 77.8296 48.7679 76.7699C49.8276 75.7102 51.2648 75.1146 52.7634 75.1141C52.0213 75.1141 51.2864 74.9679 50.6008 74.6839C49.9151 74.3999 49.2921 73.9837 48.7674 73.4589C48.2426 72.9341 47.8263 72.3112 47.5423 71.6255C47.2583 70.9399 47.1122 70.205 47.1122 69.4629C47.1122 70.205 46.966 70.9399 46.682 71.6255C46.398 72.3112 45.9817 72.9341 45.457 73.4589C44.9322 73.9837 44.3092 74.3999 43.6236 74.6839C42.9379 74.9679 42.2031 75.1141 41.4609 75.1141ZM104.925 113.394C105.582 113.394 106.213 113.655 106.678 114.12C107.144 114.586 107.405 115.216 107.405 115.874C107.405 115.216 107.667 114.585 108.133 114.12C108.598 113.655 109.229 113.394 109.887 113.394C109.561 113.394 109.238 113.33 108.937 113.206C108.636 113.081 108.363 112.898 108.132 112.668C107.901 112.438 107.719 112.164 107.594 111.863C107.469 111.562 107.405 111.24 107.405 110.914C107.405 111.571 107.144 112.202 106.678 112.667C106.213 113.133 105.582 113.394 104.925 113.394Z" fill="#E1830E"/>
<defs>
<linearGradient id="paint0_linear_234_8666" x1="56.6758" y1="96.93" x2="98.9933" y2="96.93" gradientUnits="userSpaceOnUse">
<stop stop-color="#CACFDD"/>
<stop offset="1" stop-color="#EEF0F1"/>
</linearGradient>
</defs>
</svg>
