<svg width="24" height="24" viewBox="0 0 24 24" fill="none" xmlns="http://www.w3.org/2000/svg">
<path d="M11.9984 22.7604C10.9084 22.7604 9.82844 22.4404 8.97844 21.8104L4.67844 18.6004C3.53844 17.7504 2.64844 15.9704 2.64844 14.5604V7.12043C2.64844 5.58043 3.77844 3.94043 5.22844 3.40043L10.2184 1.53043C11.2084 1.16043 12.7684 1.16043 13.7584 1.53043L18.7484 3.40043C20.1984 3.94043 21.3284 5.58043 21.3284 7.12043V14.5504C21.3284 15.9704 20.4384 17.7404 19.2984 18.5904L14.9984 21.8004C14.1684 22.4404 13.0884 22.7604 11.9984 22.7604ZM10.7484 2.94043L5.75844 4.81043C4.90844 5.13043 4.15844 6.21043 4.15844 7.13043V14.5604C4.15844 15.5104 4.82844 16.8404 5.57844 17.4004L9.87844 20.6104C11.0284 21.4704 12.9684 21.4704 14.1284 20.6104L18.4284 17.4004C19.1884 16.8304 19.8484 15.5104 19.8484 14.5604V7.12043C19.8484 6.21043 19.0984 5.13043 18.2484 4.80043L13.2584 2.93043C12.5784 2.69043 11.4184 2.69043 10.7484 2.94043Z" fill="#A7ACB2"/>
<path d="M10.6622 14.2301C10.4722 14.2301 10.2822 14.1601 10.1322 14.0101L8.52219 12.4001C8.23219 12.1101 8.23219 11.6301 8.52219 11.3401C8.81219 11.0501 9.29219 11.0501 9.58219 11.3401L10.6622 12.4201L14.4322 8.65012C14.7222 8.36012 15.2022 8.36012 15.4922 8.65012C15.7822 8.94012 15.7822 9.42012 15.4922 9.71012L11.1922 14.0101C11.0422 14.1601 10.8522 14.2301 10.6622 14.2301Z" fill="#A7ACB2"/>
</svg>
