<svg width="24" height="24" viewBox="0 0 24 24" fill="none" xmlns="http://www.w3.org/2000/svg">
<path d="M11.9962 22.7601C10.9062 22.7601 9.82621 22.4401 8.97621 21.8101L7.38621 20.6201C7.05621 20.3701 6.98621 19.9001 7.23621 19.5701C7.48621 19.2401 7.95621 19.1701 8.28621 19.4201L9.87621 20.6101C11.0262 21.4701 12.9762 21.4701 14.1262 20.6101L18.4262 17.4001C19.1862 16.8301 19.8462 15.5001 19.8462 14.5601V7.12012C19.8462 6.71012 20.1862 6.37012 20.5962 6.37012C21.0062 6.37012 21.3462 6.71012 21.3462 7.12012V14.5501C21.3462 15.9701 20.4562 17.7401 19.3162 18.5901L15.0162 21.8001C14.1662 22.4401 13.0862 22.7601 11.9962 22.7601Z" fill="#A7ACB2"/>
<path d="M5.32844 18.9004C5.16844 18.9004 5.01844 18.8504 4.87844 18.7504L4.67844 18.6004C3.53844 17.7504 2.64844 15.9704 2.64844 14.5604V7.12043C2.64844 5.58043 3.77844 3.94043 5.22844 3.40043L10.2184 1.53043C11.2084 1.16043 12.7684 1.16043 13.7584 1.53043L18.7584 3.40043C18.9684 3.48043 19.1684 3.58043 19.3684 3.70043C19.7184 3.92043 19.8284 4.38043 19.6084 4.73043C19.3884 5.08043 18.9284 5.19043 18.5784 4.97043C18.4684 4.90043 18.3584 4.84043 18.2384 4.80043L13.2384 2.93043C12.5784 2.68043 11.4084 2.68043 10.7484 2.93043L5.75844 4.81043C4.89844 5.13043 4.14844 6.21043 4.14844 7.13043V14.5604C4.14844 15.5104 4.81844 16.8404 5.56844 17.4004L5.76844 17.5504C6.09844 17.8004 6.16844 18.2704 5.91844 18.6004C5.78844 18.7904 5.55844 18.9004 5.32844 18.9004Z" fill="#A7ACB2"/>
<path d="M1.9975 22.7504C1.8075 22.7504 1.6175 22.6804 1.4675 22.5304C1.1775 22.2404 1.1775 21.7604 1.4675 21.4704L21.4675 1.47043C21.7575 1.18043 22.2375 1.18043 22.5275 1.47043C22.8175 1.76043 22.8175 2.24043 22.5275 2.53043L2.5275 22.5304C2.3775 22.6804 2.1875 22.7504 1.9975 22.7504Z" fill="#A7ACB2"/>
</svg>
