<svg width="24" height="24" viewBox="0 0 24 24" fill="none" xmlns="http://www.w3.org/2000/svg">
<path d="M11.9984 22.7604C10.9084 22.7604 9.82844 22.4404 8.97844 21.8104L4.67844 18.6004C3.53844 17.7504 2.64844 15.9704 2.64844 14.5604V7.12043C2.64844 5.58043 3.77844 3.94043 5.22844 3.40043L10.2184 1.53043C11.2084 1.16043 12.7684 1.16043 13.7584 1.53043L18.7484 3.40043C20.1984 3.94043 21.3284 5.58043 21.3284 7.12043V14.5504C21.3284 15.9704 20.4384 17.7404 19.2984 18.5904L14.9984 21.8004C14.1684 22.4404 13.0884 22.7604 11.9984 22.7604ZM10.7484 2.94043L5.75844 4.81043C4.90844 5.13043 4.15844 6.21043 4.15844 7.13043V14.5604C4.15844 15.5104 4.82844 16.8404 5.57844 17.4004L9.87844 20.6104C11.0284 21.4704 12.9684 21.4704 14.1284 20.6104L18.4284 17.4004C19.1884 16.8304 19.8484 15.5104 19.8484 14.5604V7.12043C19.8484 6.21043 19.0984 5.13043 18.2484 4.80043L13.2584 2.93043C12.5784 2.69043 11.4184 2.69043 10.7484 2.94043Z" fill="#A7ACB2"/>
<path d="M14.1537 14.1899C13.9637 14.1899 13.7738 14.1199 13.6238 13.9699L9.37375 9.71988C9.08375 9.42988 9.08375 8.94988 9.37375 8.65988C9.66375 8.36988 10.1438 8.36988 10.4338 8.65988L14.6838 12.9099C14.9738 13.1999 14.9738 13.6799 14.6838 13.9699C14.5338 14.1099 14.3437 14.1899 14.1537 14.1899Z" fill="#A7ACB2"/>
<path d="M9.84906 14.2299C9.65906 14.2299 9.46906 14.1599 9.31906 14.0099C9.02906 13.7199 9.02906 13.2399 9.31906 12.9499L13.5691 8.69992C13.8591 8.40992 14.3391 8.40992 14.6291 8.69992C14.9191 8.98992 14.9191 9.46992 14.6291 9.75992L10.3791 14.0099C10.2391 14.1599 10.0391 14.2299 9.84906 14.2299Z" fill="#A7ACB2"/>
</svg>
