<svg width="24" height="24" viewBox="0 0 24 24" fill="none" xmlns="http://www.w3.org/2000/svg">
<path d="M12 21.25H7C3.35 21.25 1.25 19.15 1.25 15.5V8.5C1.25 4.85 3.35 2.75 7 2.75H17C20.65 2.75 22.75 4.85 22.75 8.5V11.5C22.75 11.91 22.41 12.25 22 12.25C21.59 12.25 21.25 11.91 21.25 11.5V8.5C21.25 5.64 19.86 4.25 17 4.25H7C4.14 4.25 2.75 5.64 2.75 8.5V15.5C2.75 18.36 4.14 19.75 7 19.75H12C12.41 19.75 12.75 20.09 12.75 20.5C12.75 20.91 12.41 21.25 12 21.25Z" fill="#A7ACB2"/>
<path d="M12.0027 12.87C11.1627 12.87 10.3127 12.61 9.66271 12.08L6.53271 9.57996C6.21271 9.31996 6.15271 8.84997 6.41271 8.52997C6.67271 8.20997 7.1427 8.15997 7.4627 8.40997L10.5927 10.91C11.3527 11.52 12.6427 11.52 13.4027 10.91L16.5327 8.40997C16.8527 8.14997 17.3227 8.19997 17.5827 8.52997C17.8427 8.84997 17.7927 9.32996 17.4627 9.57996L14.3327 12.08C13.6927 12.61 12.8427 12.87 12.0027 12.87Z" fill="#A7ACB2"/>
<path d="M18.2 22.15C16.02 22.15 14.25 20.38 14.25 18.2C14.25 16.02 16.02 14.25 18.2 14.25C20.38 14.25 22.15 16.02 22.15 18.2C22.15 20.38 20.38 22.15 18.2 22.15ZM18.2 15.75C16.85 15.75 15.75 16.85 15.75 18.2C15.75 19.55 16.85 20.65 18.2 20.65C19.55 20.65 20.65 19.55 20.65 18.2C20.65 16.85 19.55 15.75 18.2 15.75Z" fill="#A7ACB2"/>
<path d="M21.9975 22.7504C21.8075 22.7504 21.6175 22.6804 21.4675 22.5304L20.4675 21.5304C20.1775 21.2404 20.1775 20.7604 20.4675 20.4704C20.7575 20.1804 21.2375 20.1804 21.5275 20.4704L22.5275 21.4704C22.8175 21.7604 22.8175 22.2404 22.5275 22.5304C22.3775 22.6804 22.1875 22.7504 21.9975 22.7504Z" fill="#A7ACB2"/>
</svg>
