<svg width="40" height="40" viewBox="0 0 40 40" fill="none" xmlns="http://www.w3.org/2000/svg">
<path d="M0 20C0 8.95431 8.95431 0 20 0C31.0457 0 40 8.95431 40 20C40 31.0457 31.0457 40 20 40C8.95431 40 0 31.0457 0 20Z" fill="#F59E0B" fill-opacity="0.1"/>
<g clip-path="url(#clip0_3_5266)">
<path d="M19.9987 24.1667L18.332 25.8334L19.9987 27.5001" stroke="#F59E0B" stroke-width="1.5" stroke-linecap="round" stroke-linejoin="round"/>
<path d="M18.3332 25.8335H25.8332C26.0987 25.8198 26.3571 25.7428 26.5868 25.6089C26.8165 25.475 27.0108 25.2881 27.1535 25.0638C27.2963 24.8395 27.3833 24.5843 27.4073 24.3196C27.4313 24.0548 27.3916 23.7881 27.2916 23.5418L26.8332 22.7085M17.1132 19.1668L16.5032 16.8901L14.2266 17.5001" stroke="#F59E0B" stroke-width="1.5" stroke-linecap="round" stroke-linejoin="round"/>
<path d="M16.5024 16.8901L12.7524 23.3851C12.6316 23.6219 12.5692 23.884 12.5703 24.1498C12.5715 24.4156 12.6361 24.6772 12.759 24.9129C12.8818 25.1486 13.0592 25.3515 13.2764 25.5047C13.4935 25.6578 13.7442 25.7569 14.0074 25.7935L14.9583 25.8135M22.8858 19.1668L25.1624 19.7768L25.7724 17.5001" stroke="#F59E0B" stroke-width="1.5" stroke-linecap="round" stroke-linejoin="round"/>
<path d="M25.1629 19.7768L21.4129 13.2818C21.2682 13.0588 21.0723 12.8737 20.8415 12.7418C20.6108 12.6099 20.3518 12.5352 20.0863 12.5238C19.8207 12.5123 19.5563 12.5646 19.3151 12.6762C19.0739 12.7877 18.8628 12.9554 18.6995 13.1651L18.207 13.9784" stroke="#F59E0B" stroke-width="1.5" stroke-linecap="round" stroke-linejoin="round"/>
</g>
<defs>
<clipPath id="clip0_3_5266">
<rect width="20" height="20" fill="white" transform="translate(10 10)"/>
</clipPath>
</defs>
</svg>
