<svg width="20" height="20" viewBox="0 0 20 20" fill="none" xmlns="http://www.w3.org/2000/svg">
<path d="M9.9987 10.6248C7.35703 10.6248 5.20703 8.47484 5.20703 5.83317C5.20703 3.1915 7.35703 1.0415 9.9987 1.0415C12.6404 1.0415 14.7904 3.1915 14.7904 5.83317C14.7904 8.47484 12.6404 10.6248 9.9987 10.6248ZM9.9987 2.2915C8.0487 2.2915 6.45703 3.88317 6.45703 5.83317C6.45703 7.78317 8.0487 9.37484 9.9987 9.37484C11.9487 9.37484 13.5404 7.78317 13.5404 5.83317C13.5404 3.88317 11.9487 2.2915 9.9987 2.2915Z" fill="#A7ACB2"/>
<path d="M17.1604 18.9583C16.8187 18.9583 16.5354 18.675 16.5354 18.3333C16.5354 15.4583 13.6021 13.125 10.0021 13.125C6.40208 13.125 3.46875 15.4583 3.46875 18.3333C3.46875 18.675 3.18542 18.9583 2.84375 18.9583C2.50208 18.9583 2.21875 18.675 2.21875 18.3333C2.21875 14.775 5.71041 11.875 10.0021 11.875C14.2937 11.875 17.7854 14.775 17.7854 18.3333C17.7854 18.675 17.5021 18.9583 17.1604 18.9583Z" fill="#A7ACB2"/>
</svg>
